{
.appVersion = "3219";
DisplayStrings = (
vwisky,
"Anibal/space Betina/space Caro/space Dani/space Elias/space Flavia/space Gustavo/space Hilda/space Ivan/space Jaime/space Kai/space Maria/space Nerina/space Olga/space Paulo/space Quique/space Ramiro/space Simo/space Tito/space Ursula/space Viviana/space Wally/space Ximena/space Yolanda/space Zulema",
",;",
"abcdefghi/idotless j/jdotless klmnopqrstuvwxyz/z.alt/n.alta/r.alta/g.baja/o.baja/u.baja/z.baja",
HU
);
classes = (
{
code = "b v w x";
name = conectTop;
}
);
date = "2023-09-26 11:17:40 +0000";
familyName = betania;
featurePrefixes = (
{
automatic = 1;
code = "languagesystem DFLT dflt;\012";
name = Languagesystems;
}
);
features = (
{
automatic = 1;
code = "feature calt;\012feature init;\012feature ss01;\012feature ss02;\012feature ss03;\012";
name = aalt;
},
{
automatic = 1;
code = "lookup ccmp_Other_1 {\012	@CombiningTopAccents = [dotaccentcomb];\012	lookupflag UseMarkFilteringSet @CombiningTopAccents;\012	sub i' @CombiningTopAccents by idotless;\012	sub j' @CombiningTopAccents by jdotless;\012} ccmp_Other_1;\012";
name = ccmp;
},
{
code = "sub @conectTop i' by i.top;\012sub @conectTop u' by u.top;";
name = calt;
},
{
automatic = 1;
code = "sub a by a.init;\012";
name = init;
},
{
automatic = 1;
code = "sub A by A.ss01;\012sub B by B.ss01;\012sub C by C.ss01;\012sub D by D.ss01;\012sub E by E.ss01;\012sub F by F.ss01;\012sub G by G.ss01;\012sub H by H.ss01;\012sub I by I.ss01;\012sub J by J.ss01;\012sub K by K.ss01;\012sub L by L.ss01;\012sub M by M.ss01;\012sub N by N.ss01;\012sub O by O.ss01;\012sub P by P.ss01;\012sub Q by Q.ss01;\012sub R by R.ss01;\012sub S by S.ss01;\012sub T by T.ss01;\012sub U by U.ss01;\012sub V by V.ss01;\012sub W by W.ss01;\012sub X by X.ss01;\012sub Y by Y.ss01;\012sub Z by Z.ss01;\012";
name = ss01;
notes = "Name: Name: ";
},
{
automatic = 1;

glyphs = (
{
color = 3;
glyphname = A;
lastChange = "2023-09-26 10:51:55 +0000";
layers = (
{
background = {
paths = (
{
closed = 0;
nodes = (
"440 0 LINE",
"475 700 LINE"
);
}
);
};
layerId = "6F9C6BB4-2DCF-443B-A55D-9CE049090094";
paths = (
{
closed = 0;
nodes = (
"559 0 LINE",
"329 700 LINE",
"79 0 LINE SMOOTH"
);
},
{
closed = 0;
nodes = (
"160 228 LINE",
"483 228 LINE"
);
}
);
width = 639;
}
);
unicode = 0041;
},
{
color = 3;
glyphname = B;
lastChange = "2023-09-26 10:51:55 +0000";
layers = (
{
background = {
paths = (
{
closed = 0;
nodes = (
"163 0 LINE",
"110 0 OFFCURVE",
"123 64 OFFCURVE",
"131 152 CURVE SMOOTH",
"181 700 LINE"
);
},
{
closed = 0;
nodes = (
"64 700 LINE",
"124 700 OFFCURVE",
"254 700 OFFCURVE",
"303 700 CURVE SMOOTH",
"352 700 OFFCURVE",
"444 696 OFFCURVE",
"444 567 CURVE SMOOTH",
"444 406 OFFCURVE",
"295 358 OFFCURVE",
"230 358 CURVE",
"317 360 LINE SMOOTH",
"368 360 OFFCURVE",
"464 355 OFFCURVE",
"464 220 CURVE SMOOTH",
"464 51 OFFCURVE",
"308 1 OFFCURVE",
"240 1 CURVE SMOOTH"
);
}
);
};
layerId = "6F9C6BB4-2DCF-443B-A55D-9CE049090094";
paths = (
{
closed = 0;
nodes = (
"144 700 LINE",
"303 700 LINE",
"352 700 OFFCURVE",
"444 696 OFFCURVE",
"444 571 CURVE SMOOTH",
"444 416 OFFCURVE",
"317 360 OFFCURVE",
"206 360 CURVE",
"369 360 OFFCURVE",
"464 351 OFFCURVE",
"464 220 CURVE SMOOTH",
"464 51 OFFCURVE",
"324 0 OFFCURVE",
"170 0 CURVE SMOOTH",
"132 0 LINE",
"146 700 LINE"
);
}
);
width = 565;
}
);
unicode = 0042;
},
{
color = 3;
glyphname = C;
lastChange = "2023-09-26 10:51:55 +0000";
layers = (
{
background = {
paths = (
{
closed = 0;
nodes = (
"497 681 LINE",
"450 694 OFFCURVE",
"388 700 OFFCURVE",
"330 700 CURVE SMOOTH",
"192 700 OFFCURVE",
"117 415 OFFCURVE",
"128 213 CURVE SMOOTH",
"135 84 OFFCURVE",
"192 0 OFFCURVE",
"274 0 CURVE SMOOTH",
"362 0 OFFCURVE",
"504 152 OFFCURVE",
"558 230 CURVE"
);
}
);
};
layerId = "6F9C6BB4-2DCF-443B-A55D-9CE049090094";
paths = (
{
closed = 0;
nodes = (
"521 679 LINE",
"462 693 OFFCURVE",
"411 700 OFFCURVE",
"366 700 CURVE SMOOTH",
"183 700 OFFCURVE",
"107 583 OFFCURVE",
"107 326 CURVE SMOOTH",
"107 138 OFFCURVE",
"181 0 OFFCURVE",
"319 0 CURVE SMOOTH",
"379 0 OFFCURVE",
"449 25 OFFCURVE",
"532 82 CURVE SMOOTH"
);
}
);
width = 611;
}
);
unicode = 0043;
},
{
color = 3;
glyphname = D;
lastChange = "2023-09-26 10:51:55 +0000";
layers = (
{
background = {
paths = (
{
closed = 0;
nodes = (
"64 700 LINE",
"124 700 OFFCURVE",
"254 700 OFFCURVE",
"303 700 CURVE SMOOTH",
"352 700 OFFCURVE",
"444 696 OFFCURVE",
"444 571 CURVE"
);
},
{
closed = 0;
nodes = (
"464 220 LINE",
"464 51 OFFCURVE",
"302 0 OFFCURVE",
"148 0 CURVE SMOOTH",
"121 0 OFFCURVE",
"118 12 OFFCURVE",
"120 39 CURVE SMOOTH",
"181 700 LINE"
);
},
{
closed = 0;
nodes = (
"208 20 LINE",
"262 7 OFFCURVE",
"309 1 OFFCURVE",
"347 1 CURVE SMOOTH",
"441 1 OFFCURVE",
"516 141 OFFCURVE",
"550 267 CURVE SMOOTH",
"599 453 OFFCURVE",
"590 701 OFFCURVE",
"448 701 CURVE SMOOTH",
"390 701 OFFCURVE",
"326 658 OFFCURVE",
"261 596 CURVE"
);
}
);
};
layerId = "6F9C6BB4-2DCF-443B-A55D-9CE049090094";
paths = (
{
closed = 0;
nodes = (
"143 700 LINE",
"303 700 LINE",
"502 700 OFFCURVE",
"590 578 OFFCURVE",
"590 435 CURVE SMOOTH",
"590 178 OFFCURVE",
"421 0 OFFCURVE",
"148 0 CURVE",
"133 0 LINE",
"146 700 LINE"
);
}
);
width = 688;
}
);
unicode = 0044;
},
{
color = 3;
glyphname = E;
lastChange = "2023-09-26 10:51:23 +0000";
layers = (
{
layerId = "6F9C6BB4-2DCF-443B-A55D-9CE049090094";
paths = (
{
closed = 0;
nodes = (
"426 0 LINE",
"132 0 LINE",
"146 700 LINE",
"429 700 LINE"
);
},
{
closed = 0;
nodes = (
"139 344 LINE",
"393 344 LINE"
);
}
);
width = 561;
}
);
unicode = 0045;
},
{
color = 3;
glyphname = F;
lastChange = "2023-09-26 10:31:06 +0000";
layers = (
{
layerId = "6F9C6BB4-2DCF-443B-A55D-9CE049090094";
paths = (
{
closed = 0;
nodes = (
"63 0 LINE",
"77 700 LINE",
"360 700 LINE"
);
},
{
closed = 0;
nodes = (
"70 344 LINE",
"324 344 LINE"
);
}
);
width = 423;
}
);
unicode = 0046;
},
{
color = 3;
glyphname = G;
lastChange = "2023-09-26 10:51:55 +0000";
layers = (
{
background = {
paths = (
{
closed = 0;
nodes = (
"494 361 LINE",
"343 361 LINE"
);
},
{
closed = 0;
nodes = (
"478 679 LINE",
"432 691 OFFCURVE",
"351 700 OFFCURVE",
"316 700 CURVE SMOOTH",
"148 700 OFFCURVE",
"102 562 OFFCURVE",
"102 326 CURVE SMOOTH",
"102 80 OFFCURVE",
"194 0 OFFCURVE",
"297 0 CURVE SMOOTH",
"396 0 OFFCURVE",
"494 154 OFFCURVE",
"494 270 CURVE SMOOTH"
);
}
);
};
layerId = "6F9C6BB4-2DCF-443B-A55D-9CE049090094";
paths = (
{
closed = 0;
nodes = (
"521 679 LINE",
"462 693 OFFCURVE",
"411 700 OFFCURVE",
"366 700 CURVE SMOOTH",
"183 700 OFFCURVE",
"107 583 OFFCURVE",
"107 326 CURVE SMOOTH",
"107 138 OFFCURVE",
"181 0 OFFCURVE",
"319 0 CURVE SMOOTH",
"448 0 OFFCURVE",
"546 152 OFFCURVE",
"538 341 CURVE",
"301 341 LINE"
);
}
);
width = 631;
}
);
unicode = 0047;
},
{
color = 3;
glyphname = H;
lastChange = "2023-09-26 10:51:23 +0000";
layers = (
{
background = {
paths = (
{
closed = 0;
nodes = (
"35 320 LINE",
"565 320 LINE"
);
},
{
closed = 0;
nodes = (
"120 699 LINE",
"173 699 OFFCURVE",
"163 635 OFFCURVE",
"160 547 CURVE SMOOTH",
"139 -1 LINE"
);
},
{
closed = 0;
nodes = (
"779 230 LINE",
"717 83 OFFCURVE",
"623 0 OFFCURVE",
"588 0 CURVE SMOOTH",
"555 0 OFFCURVE",
"554 38 OFFCURVE",
"557 119 CURVE SMOOTH",
"579 700 LINE"
);
}
);
};
layerId = "6F9C6BB4-2DCF-443B-A55D-9CE049090094";
paths = (
{
closed = 0;
nodes = (
"138 320 LINE",
"537 320 LINE"
);
},
{
closed = 0;
nodes = (
"145 700 LINE",
"132 0 LINE"
);
},
{
closed = 0;
nodes = (
"545 700 LINE",
"532 0 LINE"
);
}
);
width = 678;
}
);
unicode = 0048;
},
{
color = 3;
glyphname = I;
lastChange = "2023-09-26 10:51:23 +0000";
layers = (
{
background = {
paths = (
{
closed = 0;
nodes = (
"138 170 LINE",
"113 69 OFFCURVE",
"152 0 OFFCURVE",
"234 0 CURVE SMOOTH",
"339 0 OFFCURVE",
"430 114 OFFCURVE",
"435 251 CURVE SMOOTH",
"451 700 LINE",
"183 700 LINE"
);
}
);
};
layerId = "6F9C6BB4-2DCF-443B-A55D-9CE049090094";
paths = (
{
closed = 0;
nodes = (
"250 700 LINE",
"237 0 LINE"
);
},
{
closed = 0;
nodes = (
"149 700 LINE",
"349 700 LINE"
);
},
{
closed = 0;
nodes = (
"132 0 LINE",
"342 0 LINE"
);
}
);
width = 482;
}
);
unicode = 0049;
},
{
color = 3;
glyphname = J;
lastChange = "2023-09-26 10:31:07 +0000";
layers = (
{
background = {
paths = (
{
closed = 0;
nodes = (
"344 151 LINE",
"331 88 OFFCURVE",
"82 -25 OFFCURVE",
"82 -244 CURVE SMOOTH",
"82 -305 OFFCURVE",
"104 -347 OFFCURVE",
"143 -347 CURVE SMOOTH",
"195 -347 OFFCURVE",
"198 -285 OFFCURVE",
"196 -104 CURVE SMOOTH",
"194 51 OFFCURVE",
"189 206 OFFCURVE",
"196 361 CURVE SMOOTH",
"212 700 LINE",
"212 700 OFFCURVE",
"176 228 OFFCURVE",
"35 128 CURVE"
);
}
);
};
layerId = "6F9C6BB4-2DCF-443B-A55D-9CE049090094";
paths = (
{
closed = 0;
nodes = (
"43 239 LINE",
"34 82 OFFCURVE",
"84 0 OFFCURVE",
"188 0 CURVE SMOOTH",
"277 0 OFFCURVE",
"336 80 OFFCURVE",
"338 212 CURVE SMOOTH",
"346 700 LINE"
);
}
);
width = 405;
}
);
unicode = 004A;
},
{
color = 3;
glyphname = K;
lastChange = "2023-09-26 10:51:55 +0000";
layers = (
{
background = {
paths = (
{
closed = 0;
nodes = (
"425 0 LINE",
"131 0 LINE",
"145 700 LINE",
"428 700 LINE"
);
},
{
closed = 0;
nodes = (
"138 344 LINE",
"392 344 LINE"
);
}
);
};
layerId = "6F9C6BB4-2DCF-443B-A55D-9CE049090094";
paths = (
{
closed = 0;
nodes = (
"469 700 LINE",
"142 348 LINE",
"508 0 LINE"
);
},
{
closed = 0;
nodes = (
"145 700 LINE",
"133 0 LINE"
);
}
);
width = 582;
}
);
unicode = 004B;
},
{
color = 3;
glyphname = L;
lastChange = "2023-09-26 10:51:23 +0000";
layers = (
{
background = {
paths = (
{
closed = 0;
nodes = (
"47 700 LINE",
"428 700 LINE"
);
},
{
closed = 0;
nodes = (
"416 0 LINE",
"149 0 LINE",
"122 0 OFFCURVE",
"120 12 OFFCURVE",
"121 39 CURVE SMOOTH",
"147 700 LINE"
);
},
{
closed = 0;
nodes = (
"131 344 LINE",
"388 344 LINE"
);
}
);
};
layerId = "6F9C6BB4-2DCF-443B-A55D-9CE049090094";
paths = (
{
closed = 0;
nodes = (
"426 0 LINE",
"132 0 LINE",
"146 700 LINE"
);
}
);
width = 558;
}
);
unicode = 004C;
},
{
color = 3;
glyphname = M;
lastChange = "2023-09-26 10:51:55 +0000";
layers = (
{
background = {
paths = (
{
closed = 0;
nodes = (
"330 700 LINE",
"124 113 LINE SMOOTH",
"95 30 OFFCURVE",
"62 1 OFFCURVE",
"-7 1 CURVE"
);
},
{
closed = 0;
nodes = (
"815 686 LINE",
"680 268 OFFCURVE",
"530 103 OFFCURVE",
"464 54 CURVE",
"409 142 OFFCURVE",
"346 329 OFFCURVE",
"330 686 CURVE"
);
},
{
closed = 0;
nodes = (
"1013 230 LINE",
"951 83 OFFCURVE",
"857 0 OFFCURVE",
"822 0 CURVE SMOOTH",
"765 0 OFFCURVE",
"789 189 OFFCURVE",
"815 700 CURVE"
);
}
);
};
layerId = "6F9C6BB4-2DCF-443B-A55D-9CE049090094";
paths = (
{
closed = 0;
nodes = (
"114 0 LINE",
"164 700 LINE",
"464 83 LINE",
"784 700 LINE",
"814 1 LINE"
);
}
);
width = 938;
}
);
unicode = 004D;
},
{
color = 3;
glyphname = N;
lastChange = "2023-09-26 10:51:23 +0000";
layers = (
{
background = {
paths = (
{
closed = 0;
nodes = (
"561 700 LINE",
"537 0 LINE",
"146 699 LINE",
"125 112 LINE SMOOTH",
"122 29 OFFCURVE",
"98 0 OFFCURVE",
"29 0 CURVE"
);
}
);
};
layerId = "6F9C6BB4-2DCF-443B-A55D-9CE049090094";
paths = (
{
closed = 0;
nodes = (
"554 700 LINE",
"542 0 LINE",
"146 699 LINE",
"132 2 LINE"
);
}
);
width = 687;
}
);
unicode = 004E;
},
{
color = 3;
glyphname = O;
lastChange = "2023-09-26 11:15:23 +0000";
layers = (
{
background = {
paths = (
{
closed = 0;
nodes = (
"204 170 LINE",
"163 170 OFFCURVE",
"120 203 OFFCURVE",
"114 265 CURVE SMOOTH",
"97 463 OFFCURVE",
"199 700 OFFCURVE",
"397 700 CURVE SMOOTH",
"546 700 OFFCURVE",
"624 578 OFFCURVE",
"636 435 CURVE SMOOTH",
"653 237 OFFCURVE",
"546 0 OFFCURVE",
"342 0 CURVE SMOOTH",
"264 0 OFFCURVE",
"202 30 OFFCURVE",
"163 77 CURVE"
);
}
);
};
layerId = "6F9C6BB4-2DCF-443B-A55D-9CE049090094";
paths = (
{
closed = 0;
nodes = (
"102 306 LINE",
"98 495 OFFCURVE",
"201 700 OFFCURVE",
"391 700 CURVE SMOOTH",
"547 700 OFFCURVE",
"634 565 OFFCURVE",
"637 394 CURVE SMOOTH",
"641 205 OFFCURVE",
"538 0 OFFCURVE",
"348 0 CURVE SMOOTH",
"192 0 OFFCURVE",
"105 135 OFFCURVE",
"102 306 CURVE"
);
}
);
width = 739;
}
);
unicode = 004F;
},
{
color = 3;
glyphname = P;
lastChange = "2023-09-26 10:51:55 +0000";
layers = (
{
background = {
components = (
{
name = B;
transform = "{1, 0, 0, 1, 65, 0}";
}
);
};
layerId = "6F9C6BB4-2DCF-443B-A55D-9CE049090094";
paths = (
{
closed = 0;
nodes = (
"132 -1 LINE",
"147 700 LINE",
"314 700 LINE",
"427 700 OFFCURVE",
"486 646 OFFCURVE",
"486 543 CURVE SMOOTH",
"486 402 OFFCURVE",
"352 304 OFFCURVE",
"138 304 CURVE"
);
}
);
width = 574;
}
);
unicode = 0050;
},
{
color = 3;
glyphname = Q;
lastChange = "2023-09-26 10:31:06 +0000";
layers = (
{
background = {
paths = (
{
closed = 0;
nodes = (
"469 500 LINE",
"535 500 OFFCURVE",
"565 449 OFFCURVE",
"565 383 CURVE SMOOTH",
"565 226 OFFCURVE",
"461 0 OFFCURVE",
"286 0 CURVE SMOOTH",
"130 0 OFFCURVE",
"45 135 OFFCURVE",
"45 306 CURVE SMOOTH",
"45 495 OFFCURVE",
"151 700 OFFCURVE",
"341 700 CURVE SMOOTH",
"419 700 OFFCURVE",
"481 670 OFFCURVE",
"520 623 CURVE SMOOTH"
);
}
);
};
layerId = "6F9C6BB4-2DCF-443B-A55D-9CE049090094";
paths = (
{
closed = 0;
nodes = (
"181 140 LINE",
"289 140 OFFCURVE",
"461 79 OFFCURVE",
"577 -146 CURVE"
);
},
{
closed = 0;
nodes = (
"46 306 LINE",
"46 495 OFFCURVE",
"152 700 OFFCURVE",
"342 700 CURVE SMOOTH",
"498 700 OFFCURVE",
"583 565 OFFCURVE",
"583 394 CURVE SMOOTH",
"583 205 OFFCURVE",
"477 0 OFFCURVE",
"287 0 CURVE SMOOTH",
"131 0 OFFCURVE",
"46 135 OFFCURVE",
"46 306 CURVE"
);
}
);
width = 629;
}
);
unicode = 0051;
},
{
color = 3;
glyphname = R;
lastChange = "2023-09-26 10:51:55 +0000";
layers = (
{
background = {
components = (
{
name = B;
transform = "{1, 0, 0, 1, 65, 0}";
}
);
};
layerId = "6F9C6BB4-2DCF-443B-A55D-9CE049090094";
paths = (
{
closed = 0;
nodes = (
"132 0 LINE",
"147 700 LINE",
"319 700 LINE",
"419 700 OFFCURVE",
"487 661 OFFCURVE",
"487 569 CURVE SMOOTH",
"487 428 OFFCURVE",
"368 338 OFFCURVE",
"139 338 CURVE"
);
},
{
closed = 0;
nodes = (
"249 345 LINE",
"506 0 LINE"
);
}
);
width = 592;
}
);
unicode = 0052;
},
{
color = 3;
glyphname = S;
lastChange = "2023-09-26 10:51:55 +0000";
layers = (
{
background = {
paths = (
{
closed = 0;
nodes = (
"573 230 LINE",
"485 58 OFFCURVE",
"429 0 OFFCURVE",
"246 -11 CURVE SMOOTH",
"175 -15 OFFCURVE",
"95 18 OFFCURVE",
"103 72 CURVE SMOOTH"
);
},
{
closed = 0;
nodes = (
"431 623 LINE SMOOTH",
"432 676 OFFCURVE",
"392 700 OFFCURVE",
"342 700 CURVE SMOOTH",
"267 700 OFFCURVE",
"169 648 OFFCURVE",
"146 565 CURVE SMOOTH",
"89 355 OFFCURVE",
"489 361 OFFCURVE",
"433 150 CURVE SMOOTH",
"406 50 OFFCURVE",
"284 0 OFFCURVE",
"196 0 CURVE SMOOTH",
"157 0 OFFCURVE",
"127 16 OFFCURVE",
"116 31 CURVE"
);
}
);
};
hints = (
{
horizontal = 1;
origin = "{0, 0}";
type = Delta;
settings = {
deltaV = {
"{100, 100, 0, 0, 0, 0}" = {
"62" = 0;
};
};
};
},
{
horizontal = 1;
origin = "{0, 0}";
type = Delta;
settings = {
deltaV = {
"{100, 100, 0, 0, 0, 0}" = {
"62" = 0;
};
};
};
},
{
horizontal = 1;
origin = "{0, 0}";
type = Delta;
settings = {
deltaV = {
"{100, 100, 0, 0, 0, 0}" = {
"62" = 0;
};
};
};
},
{
horizontal = 1;
origin = "{0, 6}";
type = Delta;
settings = {
deltaV = {
"{100, 100, 0, 0, 0, 0}" = {
"62" = 0;
};
};
};
},
{
horizontal = 1;
origin = "{0, 12}";
type = Delta;
settings = {
deltaV = {
"{100, 100, 0, 0, 0, 0}" = {
"62" = 0;
};
};
};
},
{
horizontal = 1;
origin = "{0, 12}";
type = Delta;
settings = {
deltaV = {
"{100, 100, 0, 0, 0, 0}" = {
"62" = 0;
};
};
};
},
{
horizontal = 1;
origin = "{0, 12}";
type = Delta;
settings = {
deltaV = {
"{100, 100, 0, 0, 0, 0}" = {
"62" = 0;
};
};
};
},
{
horizontal = 1;
origin = "{0, 18}";
type = Delta;
settings = {
deltaV = {
"{100, 100, 0, 0, 0, 0}" = {
"62" = 0;
};
};
};
},
{
horizontal = 1;
origin = "{0, 18}";
type = Delta;
settings = {
deltaV = {
"{100, 100, 0, 0, 0, 0}" = {
"62" = 0;
};
};
};
},
{
horizontal = 1;
origin = "{0, 18}";
type = Delta;
settings = {
deltaV = {
"{100, 100, 0, 0, 0, 0}" = {
"62" = 0;
};
};
};
},
{
horizontal = 1;
origin = "{0, 18}";
type = Delta;
settings = {
deltaV = {
"{100, 100, 0, 0, 0, 0}" = {
"62" = 0;
};
};
};
},
{
horizontal = 1;
origin = "{0, 18}";
type = Delta;
settings = {
deltaV = {
"{100, 100, 0, 0, 0, 0}" = {
"62" = 0;
};
};
};
},
{
horizontal = 1;
origin = "{0, 18}";
type = Delta;
settings = {
deltaV = {
"{100, 100, 0, 0, 0, 0}" = {
"62" = 0;
};
};
};
}
);
layerId = "6F9C6BB4-2DCF-443B-A55D-9CE049090094";
paths = (
{
closed = 0;
nodes = (
"86 31 LINE",
"113 12 OFFCURVE",
"161 0 OFFCURVE",
"212 0 CURVE SMOOTH",
"315 0 OFFCURVE",
"432 49 OFFCURVE",
"429 188 CURVE SMOOTH",
"427 274 OFFCURVE",
"346 321 OFFCURVE",
"264 367 CURVE SMOOTH",
"186 411 OFFCURVE",
"103 464 OFFCURVE",
"103 556 CURVE SMOOTH",
"103 648 OFFCURVE",
"190 699 OFFCURVE",
"282 699 CURVE SMOOTH",
"325 699 OFFCURVE",
"369 688 OFFCURVE",
"406 664 CURVE SMOOTH"
);
}
);
width = 518;
}
);
unicode = 0053;
},
{
color = 3;
glyphname = T;
lastChange = "2023-09-26 10:51:55 +0000";
layers = (
{
background = {
paths = (
{
closed = 0;
nodes = (
"198 634 LINE",
"178 692 OFFCURVE",
"226 709 OFFCURVE",
"267 709 CURVE SMOOTH",
"379 709 OFFCURVE",
"513 690 OFFCURVE",
"607 690 CURVE SMOOTH",
"648 690 OFFCURVE",
"696 707 OFFCURVE",
"676 765 CURVE"
);
},
{
closed = 0;
nodes = (
"472 700 LINE",
"447 0 LINE"
);
}
);
};
layerId = "6F9C6BB4-2DCF-443B-A55D-9CE049090094";
paths = (
{
closed = 0;
nodes = (
"412 700 LINE",
"399 0 LINE"
);
},
{
closed = 0;
nodes = (
"132 701 LINE",
"672 700 LINE"
);
}
);
width = 745;
}
);
unicode = 0054;
},
{
color = 3;
glyphname = U;
lastChange = "2023-09-26 12:36:47 +0000";
layers = (
{
layerId = "6F9C6BB4-2DCF-443B-A55D-9CE049090094";
paths = (
{
closed = 0;
nodes = (
"149 700 LINE",
"139 220 LINE SMOOTH",
"135 89 OFFCURVE",
"210 0 OFFCURVE",
"337 0 CURVE SMOOTH",
"461 0 OFFCURVE",
"554 87 OFFCURVE",
"557 220 CURVE SMOOTH",
"568 700 LINE"
);
}
);
width = 702;
}
);
unicode = 0055;
},
{
color = 3;
glyphname = V;
lastChange = "2023-09-26 10:51:55 +0000";
layers = (
{
background = {
components = (
{
name = U;
transform = "{1, 0, 0, 1, -6, 0}";
}
);
};
layerId = "6F9C6BB4-2DCF-443B-A55D-9CE049090094";
paths = (
{
closed = 0;
nodes = (
"80 700 LINE",
"310 0 LINE",
"560 700 LINE SMOOTH"
);
}
);
width = 639;
}
);
unicode = 0056;
},
{
color = 3;
glyphname = W;
lastChange = "2023-09-26 10:51:55 +0000";
layers = (
{
background = {
paths = (
{
closed = 0;
nodes = (
"80 689 LINE",
"99 695 OFFCURVE",
"199 716 OFFCURVE",
"201 674 CURVE SMOOTH",
"216 372 OFFCURVE",
"189 0 OFFCURVE",
"250 0 CURVE SMOOTH",
"326 0 OFFCURVE",
"545 370 OFFCURVE",
"545 674 CURVE",
"560 372 OFFCURVE",
"533 0 OFFCURVE",
"594 0 CURVE SMOOTH",
"653 0 OFFCURVE",
"919 360 OFFCURVE",
"890 605 CURVE SMOOTH",
"880 692 OFFCURVE",
"656 742 OFFCURVE",
"673 654 CURVE SMOOTH",
"681 612 OFFCURVE",
"850 555 OFFCURVE",
"1002 696 CURVE"
);
}
);
};
layerId = "6F9C6BB4-2DCF-443B-A55D-9CE049090094";
paths = (
{
closed = 0;
nodes = (
"81 700 LINE",
"301 0 LINE",
"541 700 LINE",
"761 0 LINE",
"1001 700 LINE SMOOTH"
);
}
);
width = 1080;
}
);
unicode = 0057;
},
{
color = 3;
glyphname = X;
lastChange = "2023-09-26 10:45:58 +0000";
layers = (
{
background = {
components = (
{
name = baston.caps;
transform = "{1, 0, 0, 1, -67, 0}";
}
);
paths = (
{
closed = 0;
nodes = (
"-33 320 LINE",
"484 320 LINE"
);
},
{
closed = 0;
nodes = (
"698 230 LINE",
"636 83 OFFCURVE",
"542 0 OFFCURVE",
"507 0 CURVE SMOOTH",
"474 0 OFFCURVE",
"473 38 OFFCURVE",
"476 119 CURVE SMOOTH",
"498 700 LINE"
);
}
);
};
layerId = "6F9C6BB4-2DCF-443B-A55D-9CE049090094";
paths = (
{
closed = 0;
nodes = (
"37 0 LINE",
"518 700 LINE"
);
},
{
closed = 0;
nodes = (
"503 0 LINE",
"57 700 LINE"
);
}
);
width = 555;
}
);
unicode = 0058;
},
{
color = 3;
glyphname = Y;
lastChange = "2023-09-26 10:51:55 +0000";
layers = (
{
layerId = "6F9C6BB4-2DCF-443B-A55D-9CE049090094";
paths = (
{
closed = 0;
nodes = (
"542 700 LINE",
"292 300 LINE"
);
},
{
closed = 0;
nodes = (
"76 700 LINE",
"292 300 LINE",
"287 0 LINE"
);
}
);
width = 617;
}
);
unicode = 0059;
},
{
color = 3;
glyphname = Z;
lastChange = "2023-09-26 10:51:55 +0000";
layers = (
{
background = {
paths = (
{
closed = 0;
nodes = (
"684 230 LINE",
"622 83 OFFCURVE",
"529 -4 OFFCURVE",
"493 -4 CURVE SMOOTH",
"447 -4 OFFCURVE",
"382 6 OFFCURVE",
"308 6 CURVE SMOOTH",
"235 6 OFFCURVE",
"165 6 OFFCURVE",
"86 0 CURVE"
);
},
{
closed = 0;
nodes = (
"654 740 LINE",
"56 -40 LINE"
);
},
{
closed = 0;
nodes = (
"153 700 LINE",
"256 686 OFFCURVE",
"458 688 OFFCURVE",
"624 700 CURVE"
);
}
);
};
layerId = "6F9C6BB4-2DCF-443B-A55D-9CE049090094";
paths = (
{
closed = 0;
nodes = (
"84 700 LINE",
"534 700 LINE",
"74 0 LINE",
"524 0 LINE"
);
}
);
width = 609;
}
);
unicode = 005A;
},
{
color = 4;
glyphname = H.sinconexion;
lastChange = "2023-09-26 09:20:07 +0000";
layers = (
{
background = {
paths = (
{
closed = 0;
nodes = (
"57 320 LINE",
"587 320 LINE"
);
},
{
closed = 0;
nodes = (
"142 699 LINE",
"195 699 OFFCURVE",
"185 635 OFFCURVE",
"182 547 CURVE SMOOTH",
"161 -1 LINE"
);
},
{
closed = 0;
nodes = (
"801 230 LINE",
"739 83 OFFCURVE",
"645 0 OFFCURVE",
"610 0 CURVE SMOOTH",
"577 0 OFFCURVE",
"576 38 OFFCURVE",
"579 119 CURVE SMOOTH",
"601 700 LINE"
);
}
);
};
components = (
{
name = baston.caps;
transform = "{1, 0, 0, 1, 36, 0}";
}
);
layerId = "6F9C6BB4-2DCF-443B-A55D-9CE049090094";
paths = (
{
closed = 0;
nodes = (
"70 320 LINE",
"587 320 LINE"
);
},
{
closed = 0;
nodes = (
"610 0 LINE",
"577 0 OFFCURVE",
"576 38 OFFCURVE",
"579 119 CURVE SMOOTH",
"601 700 LINE"
);
}
);
width = 702;
}
);
},
{
color = 4;
glyphname = A.ss01;
lastChange = "2023-09-26 09:20:07 +0000";
layers = (
{
layerId = "6F9C6BB4-2DCF-443B-A55D-9CE049090094";
paths = (
{
closed = 0;
nodes = (
"639 700 LINE",
"613 189 OFFCURVE",
"592 0 OFFCURVE",
"649 0 CURVE SMOOTH",
"684 0 OFFCURVE",
"778 83 OFFCURVE",
"840 230 CURVE"
);
},
{
closed = 0;
nodes = (
"213 228 LINE",
"619 228 LINE"
);
},
{
closed = 0;
nodes = (
"639 700 LINE",
"238 113 LINE SMOOTH",
"182 30 OFFCURVE",
"139 1 OFFCURVE",
"70 1 CURVE"
);
}
);
width = 835;
}
);
},
{
color = 4;
glyphname = B.ss01;
lastChange = "2023-09-26 09:20:07 +0000";
layers = (
{
layerId = "6F9C6BB4-2DCF-443B-A55D-9CE049090094";
paths = (
{
closed = 0;
nodes = (
"91 700 LINE",
"348 700 LINE",
"397 700 OFFCURVE",
"489 696 OFFCURVE",
"489 571 CURVE SMOOTH",
"489 416 OFFCURVE",
"316 360 OFFCURVE",
"251 360 CURVE"
);
},
{
closed = 0;
nodes = (
"265 360 LINE",
"428 385 OFFCURVE",
"509 351 OFFCURVE",
"509 220 CURVE SMOOTH",
"509 51 OFFCURVE",
"347 0 OFFCURVE",
"193 0 CURVE SMOOTH",
"166 0 OFFCURVE",
"164 12 OFFCURVE",
"165 39 CURVE SMOOTH",
"191 700 LINE"
);
}
);
width = 588;
}
);
},
{
color = 4;
glyphname = C.ss01;
lastChange = "2023-09-26 09:20:07 +0000";
layers = (
{
layerId = "6F9C6BB4-2DCF-443B-A55D-9CE049090094";
paths = (
{
closed = 0;
nodes = (
"453 681 LINE",
"406 694 OFFCURVE",
"344 700 OFFCURVE",
"286 700 CURVE SMOOTH",
"148 700 OFFCURVE",
"73 415 OFFCURVE",
"84 213 CURVE SMOOTH",
"91 84 OFFCURVE",
"148 0 OFFCURVE",
"230 0 CURVE SMOOTH",
"318 0 OFFCURVE",
"438 105 OFFCURVE",
"514 230 CURVE"
);
}
);
width = 509;
}
);
},
{
color = 4;
glyphname = D.ss01;
lastChange = "2023-09-26 09:20:07 +0000";
layers = (
{
layerId = "6F9C6BB4-2DCF-443B-A55D-9CE049090094";
paths = (
{
closed = 0;
nodes = (
"91 700 LINE",
"348 700 LINE",
"547 700 OFFCURVE",
"635 578 OFFCURVE",
"635 435 CURVE SMOOTH",
"635 237 OFFCURVE",
"465 0 OFFCURVE",
"193 0 CURVE SMOOTH",
"166 0 OFFCURVE",
"164 12 OFFCURVE",
"165 39 CURVE SMOOTH",
"191 700 LINE"
);
}
);
width = 714;
}
);
},
{
color = 4;
glyphname = E.ss01;
lastChange = "2023-09-26 09:20:07 +0000";
layers = (
{
layerId = "6F9C6BB4-2DCF-443B-A55D-9CE049090094";
paths = (
{
closed = 0;
nodes = (
"91 700 LINE",
"472 700 LINE"
);
},
{
closed = 0;
nodes = (
"460 0 LINE",
"193 0 LINE",
"166 0 OFFCURVE",
"164 12 OFFCURVE",
"165 39 CURVE SMOOTH",
"191 700 LINE"
);
},
{
closed = 0;
nodes = (
"175 344 LINE",
"432 344 LINE"
);
}
);
width = 562;
}
);
},
{
color = 4;
glyphname = F.ss01;
lastChange = "2023-09-26 09:20:07 +0000";
layers = (
{
layerId = "6F9C6BB4-2DCF-443B-A55D-9CE049090094";
paths = (
{
closed = 0;
nodes = (
"91 700 LINE",
"472 700 LINE"
);
},
{
closed = 0;
nodes = (
"175 334 LINE",
"432 334 LINE"
);
},
{
closed = 0;
nodes = (
"191 701 LINE",
"165 0 LINE"
);
}
);
width = 563;
}
);
},
{
color = 4;
glyphname = G.ss01;
lastChange = "2023-09-26 09:20:07 +0000";
layers = (
{
layerId = "6F9C6BB4-2DCF-443B-A55D-9CE049090094";
paths = (
{
closed = 0;
nodes = (
"454 681 LINE",
"407 694 OFFCURVE",
"345 700 OFFCURVE",
"287 700 CURVE SMOOTH",
"149 700 OFFCURVE",
"74 415 OFFCURVE",
"85 213 CURVE SMOOTH",
"91 84 OFFCURVE",
"138 0 OFFCURVE",
"205 0 CURVE SMOOTH",
"278 0 OFFCURVE",
"387 116 OFFCURVE",
"450 270 CURVE"
);
},
{
closed = 0;
nodes = (
"598 151 LINE",
"585 88 OFFCURVE",
"336 -25 OFFCURVE",
"336 -244 CURVE SMOOTH",
"336 -305 OFFCURVE",
"358 -347 OFFCURVE",
"397 -347 CURVE SMOOTH",
"449 -347 OFFCURVE",
"450 -285 OFFCURVE",
"450 -104 CURVE SMOOTH",
"450 361 LINE",
"299 361 LINE"
);
}
);
width = 636;
}
);
},
{
color = 4;
glyphname = H.ss01;
lastChange = "2023-09-26 09:20:07 +0000";
layers = (
{
layerId = "6F9C6BB4-2DCF-443B-A55D-9CE049090094";
paths = (
{
closed = 0;
nodes = (
"83 320 LINE",
"600 320 LINE"
);
},
{
closed = 0;
nodes = (
"814 230 LINE",
"752 83 OFFCURVE",
"658 0 OFFCURVE",
"623 0 CURVE SMOOTH",
"590 0 OFFCURVE",
"589 38 OFFCURVE",
"592 119 CURVE SMOOTH",
"614 700 LINE"
);
},
{
closed = 0;
nodes = (
"99 700 LINE",
"193 700 OFFCURVE",
"199 699 OFFCURVE",
"195 588 CURVE SMOOTH",
"174 0 LINE"
);
}
);
width = 809;
}
);
},
{
color = 4;
glyphname = I.ss01;
lastChange = "2023-09-26 09:20:07 +0000";
layers = (
{
layerId = "6F9C6BB4-2DCF-443B-A55D-9CE049090094";
paths = (
{
closed = 0;
nodes = (
"82 170 LINE",
"57 69 OFFCURVE",
"96 0 OFFCURVE",
"178 0 CURVE SMOOTH",
"283 0 OFFCURVE",
"374 114 OFFCURVE",
"379 251 CURVE SMOOTH",
"395 700 LINE",
"301 688 OFFCURVE",
"187 686 OFFCURVE",
"129 700 CURVE"
);
}
);
width = 483;
}
);
},
{
color = 4;
glyphname = J.ss01;
lastChange = "2023-09-26 09:20:07 +0000";
layers = (
{
layerId = "6F9C6BB4-2DCF-443B-A55D-9CE049090094";
paths = (
{
closed = 0;
nodes = (
"180 251 LINE",
"196 700 LINE",
"119 688 OFFCURVE",
"26 686 OFFCURVE",
"-22 700 CURVE"
);
},
{
closed = 0;
nodes = (
"184 360 LINE",
"163 -240 LINE SMOOTH",
"161 -299 OFFCURVE",
"147 -324 OFFCURVE",
"117 -324 CURVE SMOOTH",
"84 -324 OFFCURVE",
"57 -294 OFFCURVE",
"57 -244 CURVE SMOOTH",
"57 -166 OFFCURVE",
"121 -99 OFFCURVE",
"221 20 CURVE SMOOTH",
"280 90 OFFCURVE",
"344 167 OFFCURVE",
"372 230 CURVE"
);
}
);
width = 367;
}
);
},
{
color = 4;
glyphname = K.ss01;
lastChange = "2023-09-26 09:20:07 +0000";
layers = (
{
layerId = "6F9C6BB4-2DCF-443B-A55D-9CE049090094";
paths = (
{
closed = 0;
nodes = (
"534 700 LINE",
"217 358 LINE",
"430 95 LINE SMOOTH",
"464 53 OFFCURVE",
"521 0 OFFCURVE",
"573 0 CURVE SMOOTH"
);
},
{
closed = 0;
nodes = (
"101 700 LINE",
"195 700 OFFCURVE",
"201 699 OFFCURVE",
"197 588 CURVE SMOOTH",
"176 0 LINE"
);
}
);
width = 600;
}
);
},
{
color = 4;
glyphname = L.ss01;
lastChange = "2023-09-26 09:20:07 +0000";
layers = (
{
layerId = "6F9C6BB4-2DCF-443B-A55D-9CE049090094";
paths = (
{
closed = 0;
nodes = (
"60 -39 LINE",
"236 534 LINE SMOOTH",
"266 631 OFFCURVE",
"323 700 OFFCURVE",
"392 700 CURVE SMOOTH",
"456 700 OFFCURVE",
"490 660 OFFCURVE",
"490 610 CURVE SMOOTH",
"490 501 OFFCURVE",
"344 411 OFFCURVE",
"224 411 CURVE SMOOTH",
"144 411 OFFCURVE",
"57 449 OFFCURVE",
"-14 562 CURVE"
);
},
{
closed = 0;
nodes = (
"573 230 LINE",
"511 83 OFFCURVE",
"418 0 OFFCURVE",
"382 0 CURVE SMOOTH",
"297 0 OFFCURVE",
"212 14 OFFCURVE",
"127 14 CURVE SMOOTH",
"106 14 OFFCURVE",
"90 11 OFFCURVE",
"72 1 CURVE"
);
}
);
width = 568;
}
);
},
{
color = 4;
glyphname = M.ss01;
lastChange = "2023-09-26 09:20:07 +0000";
layers = (
{
layerId = "6F9C6BB4-2DCF-443B-A55D-9CE049090094";
paths = (
{
closed = 0;
nodes = (
"406 700 LINE",
"201 113 LINE SMOOTH",
"172 30 OFFCURVE",
"139 1 OFFCURVE",
"70 1 CURVE"
);
},
{
closed = 0;
nodes = (
"892 700 LINE",
"757 282 OFFCURVE",
"580 132 OFFCURVE",
"514 83 CURVE",
"459 171 OFFCURVE",
"423 343 OFFCURVE",
"407 700 CURVE"
);
},
{
closed = 0;
nodes = (
"1090 230 LINE",
"1028 83 OFFCURVE",
"934 0 OFFCURVE",
"899 0 CURVE SMOOTH",
"842 0 OFFCURVE",
"867 189 OFFCURVE",
"893 700 CURVE"
);
}
);
width = 1085;
}
);
},
{
color = 4;
glyphname = N.ss01;
lastChange = "2023-09-26 09:20:07 +0000";
layers = (
{
layerId = "6F9C6BB4-2DCF-443B-A55D-9CE049090094";
paths = (
{
closed = 0;
nodes = (
"614 700 LINE",
"565 0 LINE"
);
},
{
closed = 0;
nodes = (
"199 700 LINE",
"157 112 LINE SMOOTH",
"151 29 OFFCURVE",
"126 0 OFFCURVE",
"57 0 CURVE"
);
},
{
closed = 0;
nodes = (
"566 6 LINE",
"531 90 OFFCURVE",
"229 601 OFFCURVE",
"200 700 CURVE"
);
}
);
width = 694;
}
);
},
{
color = 4;
glyphname = O.ss01;
lastChange = "2023-09-26 09:20:07 +0000";
layers = (
{
layerId = "6F9C6BB4-2DCF-443B-A55D-9CE049090094";
paths = (
{
closed = 0;
nodes = (
"175 170 LINE",
"109 170 OFFCURVE",
"79 234 OFFCURVE",
"79 317 CURVE SMOOTH",
"79 474 OFFCURVE",
"183 700 OFFCURVE",
"358 700 CURVE SMOOTH",
"514 700 OFFCURVE",
"599 565 OFFCURVE",
"599 394 CURVE SMOOTH",
"599 205 OFFCURVE",
"493 0 OFFCURVE",
"303 0 CURVE SMOOTH",
"225 0 OFFCURVE",
"163 30 OFFCURVE",
"124 77 CURVE"
);
}
);
width = 680;
}
);
},
{
color = 4;
glyphname = P.ss01;
lastChange = "2023-09-26 09:20:07 +0000";
layers = (
{
layerId = "6F9C6BB4-2DCF-443B-A55D-9CE049090094";
paths = (
{
closed = 0;
nodes = (
"91 700 LINE",
"373 700 LINE",
"433 700 OFFCURVE",
"545 695 OFFCURVE",
"545 543 CURVE SMOOTH",
"545 354 OFFCURVE",
"335 286 OFFCURVE",
"255 286 CURVE"
);
},
{
closed = 0;
nodes = (
"272 286 LINE"
);
},
{
closed = 0;
nodes = (
"191 -1 LINE",
"217 700 LINE"
);
}
);
width = 622;
}
);
},
{
color = 4;
glyphname = Q.ss01;
lastChange = "2023-09-26 09:20:07 +0000";
layers = (
{
layerId = "6F9C6BB4-2DCF-443B-A55D-9CE049090094";
paths = (
{
closed = 0;
nodes = (
"102 200 LINE",
"84 216 OFFCURVE",
"79 251 OFFCURVE",
"79 317 CURVE SMOOTH",
"79 474 OFFCURVE",
"183 700 OFFCURVE",
"358 700 CURVE SMOOTH",
"514 700 OFFCURVE",
"599 565 OFFCURVE",
"599 394 CURVE SMOOTH",
"599 205 OFFCURVE",
"493 0 OFFCURVE",
"303 0 CURVE SMOOTH",
"225 0 OFFCURVE",
"143 64 OFFCURVE",
"143 100 CURVE SMOOTH",
"143 121 OFFCURVE",
"184 140 OFFCURVE",
"245 140 CURVE SMOOTH",
"353 140 OFFCURVE",
"525 79 OFFCURVE",
"641 -146 CURVE"
);
}
);
width = 682;
}
);
},
{
color = 4;
glyphname = R.ss01;
lastChange = "2023-09-26 09:20:07 +0000";
layers = (
{
layerId = "6F9C6BB4-2DCF-443B-A55D-9CE049090094";
paths = (
{
closed = 0;
nodes = (
"91 700 LINE",
"368 700 LINE",
"421 700 OFFCURVE",
"520 696 OFFCURVE",
"520 561 CURVE SMOOTH",
"520 394 OFFCURVE",
"363 292 OFFCURVE",
"265 338 CURVE"
);
},
{
closed = 0;
nodes = (
"165 0 LINE",
"191 700 LINE"
);
},
{
closed = 0;
nodes = (
"232 378 LINE",
"444 95 LINE SMOOTH",
"475 53 OFFCURVE",
"527 0 OFFCURVE",
"579 0 CURVE SMOOTH"
);
}
);
width = 650;
}
);
},
{
color = 4;
glyphname = S.ss01;
lastChange = "2023-09-26 09:20:07 +0000";
layers = (
{
hints = (
{
horizontal = 1;
origin = "{0, 12}";
type = Delta;
settings = {
deltaV = {
"{100, 100, 0, 0, 0, 0}" = {
"62" = 0;
};
};
};
},
{
horizontal = 1;
origin = "{0, 11}";
type = Delta;
settings = {
deltaV = {
"{100, 100, 0, 0, 0, 0}" = {
"62" = 0;
};
};
};
},
{
horizontal = 1;
origin = "{0, 10}";
type = Delta;
settings = {
deltaV = {
"{100, 100, 0, 0, 0, 0}" = {
"62" = 0;
};
};
};
},
{
horizontal = 1;
origin = "{0, 9}";
type = Delta;
settings = {
deltaV = {
"{100, 100, 0, 0, 0, 0}" = {
"62" = 0;
};
};
};
},
{
horizontal = 1;
origin = "{0, 8}";
type = Delta;
settings = {
deltaV = {
"{100, 100, 0, 0, 0, 0}" = {
"62" = 0;
};
};
};
},
{
horizontal = 1;
origin = "{0, 7}";
type = Delta;
settings = {
deltaV = {
"{100, 100, 0, 0, 0, 0}" = {
"62" = 0;
};
};
};
},
{
horizontal = 1;
origin = "{0, 6}";
type = Delta;
settings = {
deltaV = {
"{100, 100, 0, 0, 0, 0}" = {
"62" = 0;
};
};
};
},
{
horizontal = 1;
origin = "{0, 5}";
type = Delta;
settings = {
deltaV = {
"{100, 100, 0, 0, 0, 0}" = {
"62" = 0;
};
};
};
},
{
horizontal = 1;
origin = "{0, 4}";
type = Delta;
settings = {
deltaV = {
"{100, 100, 0, 0, 0, 0}" = {
"62" = 0;
};
};
};
},
{
horizontal = 1;
origin = "{0, 3}";
type = Delta;
settings = {
deltaV = {
"{100, 100, 0, 0, 0, 0}" = {
"62" = 0;
};
};
};
},
{
horizontal = 1;
origin = "{0, 2}";
type = Delta;
settings = {
deltaV = {
"{100, 100, 0, 0, 0, 0}" = {
"62" = 0;
};
};
};
},
{
horizontal = 1;
origin = "{0, 1}";
type = Delta;
settings = {
deltaV = {
"{100, 100, 0, 0, 0, 0}" = {
"62" = 0;
};
};
};
},
{
horizontal = 1;
origin = "{0, 0}";
type = Delta;
settings = {
deltaV = {
"{100, 100, 0, 0, 0, 0}" = {
"62" = 0;
};
};
};
}
);
layerId = "6F9C6BB4-2DCF-443B-A55D-9CE049090094";
paths = (
{
closed = 0;
nodes = (
"400 623 LINE",
"401 676 OFFCURVE",
"361 700 OFFCURVE",
"311 700 CURVE SMOOTH",
"236 700 OFFCURVE",
"138 648 OFFCURVE",
"115 565 CURVE SMOOTH",
"58 355 OFFCURVE",
"458 361 OFFCURVE",
"402 150 CURVE SMOOTH",
"375 50 OFFCURVE",
"253 0 OFFCURVE",
"165 0 CURVE SMOOTH",
"126 0 OFFCURVE",
"96 16 OFFCURVE",
"85 31 CURVE"
);
},
{
closed = 0;
nodes = (
"542 230 LINE",
"490 94 OFFCURVE",
"372 2 OFFCURVE",
"291 0 CURVE SMOOTH",
"263 -1 OFFCURVE",
"215 -1 OFFCURVE",
"187 0 CURVE"
);
}
);
width = 537;
}
);
},
{
color = 4;
glyphname = T.ss01;
lastChange = "2023-09-26 09:20:07 +0000";
layers = (
{
layerId = "6F9C6BB4-2DCF-443B-A55D-9CE049090094";
paths = (
{
closed = 0;
nodes = (
"353 699 LINE",
"328 0 LINE"
);
},
{
closed = 0;
nodes = (
"70 701 LINE",
"188 695 OFFCURVE",
"420 697 OFFCURVE",
"610 711 CURVE"
);
}
);
width = 680;
}
);
},
{
color = 4;
glyphname = U.ss01;
lastChange = "2023-09-26 09:20:07 +0000";
layers = (
{
layerId = "6F9C6BB4-2DCF-443B-A55D-9CE049090094";
paths = (
{
closed = 0;
nodes = (
"757 230 LINE",
"695 83 OFFCURVE",
"601 0 OFFCURVE",
"566 0 CURVE SMOOTH",
"533 0 OFFCURVE",
"532 38 OFFCURVE",
"535 119 CURVE SMOOTH",
"557 700 LINE"
);
},
{
closed = 0;
nodes = (
"82 700 LINE",
"176 700 OFFCURVE",
"182 699 OFFCURVE",
"178 588 CURVE SMOOTH",
"166 173 LINE SMOOTH",
"163 68 OFFCURVE",
"221 0 OFFCURVE",
"293 0 CURVE SMOOTH",
"369 0 OFFCURVE",
"474 105 OFFCURVE",
"540 230 CURVE"
);
}
);
width = 752;
}
);
},
{
color = 4;
glyphname = V.ss01;
lastChange = "2023-09-26 09:20:07 +0000";
layers = (
{
layerId = "6F9C6BB4-2DCF-443B-A55D-9CE049090094";
paths = (
{
closed = 0;
nodes = (
"71 689 LINE",
"90 695 OFFCURVE",
"190 716 OFFCURVE",
"192 674 CURVE SMOOTH",
"207 372 OFFCURVE",
"180 0 OFFCURVE",
"241 0 CURVE SMOOTH",
"310 0 OFFCURVE",
"616 360 OFFCURVE",
"587 605 CURVE SMOOTH",
"577 692 OFFCURVE",
"353 742 OFFCURVE",
"370 654 CURVE SMOOTH",
"378 612 OFFCURVE",
"547 555 OFFCURVE",
"699 696 CURVE SMOOTH"
);
}
);
width = 699;
}
);
},
{
color = 4;
glyphname = W.ss01;
lastChange = "2023-09-26 09:20:07 +0000";
layers = (
{
layerId = "6F9C6BB4-2DCF-443B-A55D-9CE049090094";
paths = (
{
closed = 0;
nodes = (
"71 689 LINE",
"90 695 OFFCURVE",
"190 716 OFFCURVE",
"192 674 CURVE SMOOTH",
"207 372 OFFCURVE",
"180 0 OFFCURVE",
"241 0 CURVE SMOOTH",
"317 0 OFFCURVE",
"536 370 OFFCURVE",
"536 674 CURVE",
"551 372 OFFCURVE",
"524 0 OFFCURVE",
"585 0 CURVE SMOOTH",
"644 0 OFFCURVE",
"910 360 OFFCURVE",
"881 605 CURVE SMOOTH",
"871 692 OFFCURVE",
"647 742 OFFCURVE",
"664 654 CURVE SMOOTH",
"672 612 OFFCURVE",
"841 555 OFFCURVE",
"993 696 CURVE"
);
}
);
width = 993;
}
);
},
{
color = 4;
glyphname = X.ss01;
lastChange = "2023-09-26 09:20:07 +0000";
layers = (
{
layerId = "6F9C6BB4-2DCF-443B-A55D-9CE049090094";
paths = (
{
closed = 0;
nodes = (
"136 0 LINE",
"587 700 LINE"
);
},
{
closed = 0;
nodes = (
"793 230 LINE",
"731 83 OFFCURVE",
"637 0 OFFCURVE",
"602 0 CURVE SMOOTH",
"562 0 OFFCURVE",
"310 440 OFFCURVE",
"177 670 CURVE SMOOTH",
"159 700 OFFCURVE",
"141 700 OFFCURVE",
"71 701 CURVE"
);
}
);
width = 788;
}
);
},
{
color = 4;
glyphname = Y.ss01;
lastChange = "2023-09-26 09:20:07 +0000";
layers = (
{
layerId = "6F9C6BB4-2DCF-443B-A55D-9CE049090094";
paths = (
{
closed = 0;
nodes = (
"543 360 LINE",
"556 700 LINE"
);
},
{
closed = 0;
nodes = (
"81 700 LINE",
"175 700 OFFCURVE",
"180 699 OFFCURVE",
"177 588 CURVE SMOOTH",
"165 173 LINE SMOOTH",
"162 68 OFFCURVE",
"169 0 OFFCURVE",
"241 0 CURVE SMOOTH",
"317 0 OFFCURVE",
"475 192 OFFCURVE",
"541 317 CURVE"
);
},
{
closed = 0;
nodes = (
"543 360 LINE",
"522 -240 LINE SMOOTH",
"520 -299 OFFCURVE",
"506 -324 OFFCURVE",
"476 -324 CURVE SMOOTH",
"443 -324 OFFCURVE",
"416 -294 OFFCURVE",
"416 -244 CURVE SMOOTH",
"416 -166 OFFCURVE",
"480 -99 OFFCURVE",
"580 20 CURVE SMOOTH",
"639 90 OFFCURVE",
"703 167 OFFCURVE",
"731 230 CURVE"
);
}
);
width = 726;
}
);
},
{
color = 4;
glyphname = Z.ss01;
lastChange = "2023-09-26 09:20:07 +0000";
layers = (
{
layerId = "6F9C6BB4-2DCF-443B-A55D-9CE049090094";
paths = (
{
closed = 0;
nodes = (
"679 230 LINE",
"617 83 OFFCURVE",
"524 -4 OFFCURVE",
"488 -4 CURVE SMOOTH",
"442 -4 OFFCURVE",
"377 6 OFFCURVE",
"303 6 CURVE SMOOTH",
"230 6 OFFCURVE",
"160 6 OFFCURVE",
"81 0 CURVE"
);
},
{
closed = 0;
nodes = (
"649 740 LINE",
"51 -40 LINE"
);
},
{
closed = 0;
nodes = (
"148 700 LINE",
"251 686 OFFCURVE",
"453 688 OFFCURVE",
"619 700 CURVE"
);
}
);
width = 674;
}
);
},
{
color = 5;
glyphname = A.ss02;
lastChange = "2023-09-26 09:19:46 +0000";
layers = (
{
layerId = "6F9C6BB4-2DCF-443B-A55D-9CE049090094";
paths = (
{
closed = 0;
nodes = (
"385 700 LINE",
"457 189 OFFCURVE",
"462 0 OFFCURVE",
"519 0 CURVE SMOOTH"
);
},
{
closed = 0;
nodes = (
"153 228 LINE",
"451 228 LINE"
);
},
{
closed = 0;
nodes = (
"385 700 LINE",
"36 0 LINE SMOOTH"
);
},
{
closed = 0;
nodes = (
"625 150 LINE SMOOTH",
"596 50 OFFCURVE",
"553 0 OFFCURVE",
"519 0 CURVE"
);
}
);
width = 625;
}
);
},
{
color = 5;
glyphname = B.ss02;
lastChange = "2023-09-26 09:19:46 +0000";
layers = (
{
layerId = "6F9C6BB4-2DCF-443B-A55D-9CE049090094";
paths = (
{
closed = 0;
nodes = (
"57 700 LINE",
"314 700 LINE",
"363 700 OFFCURVE",
"455 696 OFFCURVE",
"455 571 CURVE SMOOTH",
"455 416 OFFCURVE",
"282 360 OFFCURVE",
"217 360 CURVE"
);
},
{
closed = 0;
nodes = (
"231 360 LINE",
"394 385 OFFCURVE",
"475 351 OFFCURVE",
"475 220 CURVE SMOOTH",
"475 51 OFFCURVE",
"313 0 OFFCURVE",
"159 0 CURVE SMOOTH",
"132 0 OFFCURVE",
"130 12 OFFCURVE",
"131 39 CURVE SMOOTH",
"157 700 LINE"
);
}
);
width = 519;
}
);
},
{
color = 5;
glyphname = C.ss02;
lastChange = "2023-09-26 09:19:46 +0000";
layers = (
{
layerId = "6F9C6BB4-2DCF-443B-A55D-9CE049090094";
paths = (
{
closed = 0;
nodes = (
"427 679 LINE",
"381 691 OFFCURVE",
"300 700 OFFCURVE",
"265 700 CURVE SMOOTH",
"97 700 OFFCURVE",
"51 562 OFFCURVE",
"51 326 CURVE SMOOTH",
"51 80 OFFCURVE",
"143 0 OFFCURVE",
"246 0 CURVE SMOOTH",
"345 0 OFFCURVE",
"455 74 OFFCURVE",
"502 150 CURVE SMOOTH"
);
}
);
width = 502;
}
);
},
{
color = 5;
glyphname = D.ss02;
lastChange = "2023-09-26 09:19:46 +0000";
layers = (
{
layerId = "6F9C6BB4-2DCF-443B-A55D-9CE049090094";
paths = (
{
closed = 0;
nodes = (
"57 700 LINE",
"314 700 LINE",
"513 700 OFFCURVE",
"601 578 OFFCURVE",
"601 435 CURVE SMOOTH",
"601 237 OFFCURVE",
"431 0 OFFCURVE",
"159 0 CURVE SMOOTH",
"132 0 OFFCURVE",
"130 12 OFFCURVE",
"131 39 CURVE SMOOTH",
"157 700 LINE"
);
}
);
width = 645;
}
);
},
{
color = 5;
glyphname = E.ss02;
lastChange = "2023-09-26 09:19:46 +0000";
layers = (
{
layerId = "6F9C6BB4-2DCF-443B-A55D-9CE049090094";
paths = (
{
closed = 0;
nodes = (
"57 700 LINE",
"438 700 LINE"
);
},
{
closed = 0;
nodes = (
"426 0 LINE",
"159 0 LINE",
"132 0 OFFCURVE",
"130 12 OFFCURVE",
"131 39 CURVE SMOOTH",
"157 700 LINE"
);
},
{
closed = 0;
nodes = (
"141 344 LINE",
"398 344 LINE"
);
}
);
width = 494;
}
);
},
{
color = 5;
glyphname = F.ss02;
lastChange = "2023-09-26 09:19:46 +0000";
layers = (
{
layerId = "6F9C6BB4-2DCF-443B-A55D-9CE049090094";
paths = (
{
closed = 0;
nodes = (
"57 700 LINE",
"438 700 LINE"
);
},
{
closed = 0;
nodes = (
"141 334 LINE",
"398 334 LINE"
);
},
{
closed = 0;
nodes = (
"157 701 LINE",
"131 0 LINE"
);
}
);
width = 495;
}
);
},
{
color = 5;
glyphname = G.ss02;
lastChange = "2023-09-26 09:19:46 +0000";
layers = (
{
layerId = "6F9C6BB4-2DCF-443B-A55D-9CE049090094";
paths = (
{
closed = 0;
nodes = (
"591 151 LINE",
"578 88 OFFCURVE",
"329 -25 OFFCURVE",
"329 -244 CURVE SMOOTH",
"329 -305 OFFCURVE",
"351 -347 OFFCURVE",
"390 -347 CURVE SMOOTH",
"442 -347 OFFCURVE",
"443 -285 OFFCURVE",
"443 -104 CURVE SMOOTH",
"443 361 LINE",
"292 361 LINE"
);
},
{
closed = 0;
nodes = (
"427 679 LINE",
"381 691 OFFCURVE",
"300 700 OFFCURVE",
"265 700 CURVE SMOOTH",
"97 700 OFFCURVE",
"51 562 OFFCURVE",
"51 326 CURVE SMOOTH",
"51 80 OFFCURVE",
"143 0 OFFCURVE",
"246 0 CURVE SMOOTH",
"345 0 OFFCURVE",
"443 154 OFFCURVE",
"443 270 CURVE SMOOTH"
);
}
);
width = 591;
}
);
},
{
color = 5;
glyphname = H.ss02;
lastChange = "2023-09-26 09:19:46 +0000";
layers = (
{
layerId = "6F9C6BB4-2DCF-443B-A55D-9CE049090094";
paths = (
{
closed = 0;
nodes = (
"59 320 LINE",
"576 320 LINE"
);
},
{
closed = 0;
nodes = (
"172 700 LINE",
"150 0 LINE"
);
},
{
closed = 0;
nodes = (
"749 150 LINE SMOOTH",
"690 50 OFFCURVE",
"633 0 OFFCURVE",
"599 0 CURVE SMOOTH",
"566 0 OFFCURVE",
"565 38 OFFCURVE",
"568 119 CURVE SMOOTH",
"590 700 LINE"
);
}
);
width = 749;
}
);
},
{
color = 5;
glyphname = I.ss02;
lastChange = "2023-09-26 09:19:46 +0000";
layers = (
{
layerId = "6F9C6BB4-2DCF-443B-A55D-9CE049090094";
paths = (
{
closed = 0;
nodes = (
"44 170 LINE",
"19 65 OFFCURVE",
"100 0 OFFCURVE",
"179 0 CURVE SMOOTH",
"258 0 OFFCURVE",
"334 65 OFFCURVE",
"339 212 CURVE SMOOTH",
"357 700 LINE",
"255 687 OFFCURVE",
"145 687 OFFCURVE",
"91 700 CURVE"
);
}
);
width = 411;
}
);
},
{
color = 5;
glyphname = J.ss02;
lastChange = "2023-09-26 09:19:46 +0000";
layers = (
{
layerId = "6F9C6BB4-2DCF-443B-A55D-9CE049090094";
paths = (
{
closed = 0;
nodes = (
"345 151 LINE",
"332 88 OFFCURVE",
"83 -25 OFFCURVE",
"83 -244 CURVE SMOOTH",
"83 -305 OFFCURVE",
"105 -347 OFFCURVE",
"144 -347 CURVE SMOOTH",
"196 -347 OFFCURVE",
"199 -285 OFFCURVE",
"197 -104 CURVE SMOOTH",
"195 51 OFFCURVE",
"190 206 OFFCURVE",
"197 361 CURVE SMOOTH",
"213 700 LINE",
"213 700 OFFCURVE",
"177 228 OFFCURVE",
"36 128 CURVE"
);
}
);
width = 345;
}
);
},
{
color = 5;
glyphname = K.ss02;
lastChange = "2023-09-26 09:19:46 +0000";
layers = (
{
layerId = "6F9C6BB4-2DCF-443B-A55D-9CE049090094";
paths = (
{
closed = 0;
nodes = (
"417 700 LINE",
"100 358 LINE",
"313 95 LINE SMOOTH",
"347 53 OFFCURVE",
"404 0 OFFCURVE",
"456 0 CURVE SMOOTH",
"490 0 OFFCURVE",
"547 50 OFFCURVE",
"606 150 CURVE SMOOTH"
);
},
{
closed = 0;
nodes = (
"80 700 LINE",
"59 0 LINE"
);
}
);
width = 606;
}
);
},
{
color = 5;
glyphname = L.ss02;
lastChange = "2023-09-26 09:19:46 +0000";
layers = (
{
layerId = "6F9C6BB4-2DCF-443B-A55D-9CE049090094";
paths = (
{
closed = 0;
nodes = (
"83 700 LINE",
"57 2 LINE",
"75 12 OFFCURVE",
"103 14 OFFCURVE",
"124 14 CURVE SMOOTH",
"209 14 OFFCURVE",
"185 0 OFFCURVE",
"270 0 CURVE SMOOTH",
"304 0 OFFCURVE",
"361 50 OFFCURVE",
"420 150 CURVE SMOOTH"
);
}
);
width = 420;
}
);
},
{
color = 5;
glyphname = M.ss02;
lastChange = "2023-09-26 09:19:46 +0000";
layers = (
{
layerId = "6F9C6BB4-2DCF-443B-A55D-9CE049090094";
paths = (
{
closed = 0;
nodes = (
"38 0 LINE",
"209 700 LINE",
"360 83 LINE",
"696 700 LINE",
"697 189 OFFCURVE",
"682 0 OFFCURVE",
"739 0 CURVE SMOOTH"
);
},
{
closed = 0;
nodes = (
"845 150 LINE SMOOTH",
"816 50 OFFCURVE",
"773 0 OFFCURVE",
"739 0 CURVE"
);
}
);
width = 845;
}
);
},
{
color = 5;
glyphname = N.ss02;
lastChange = "2023-09-26 09:19:46 +0000";
layers = (
{
layerId = "6F9C6BB4-2DCF-443B-A55D-9CE049090094";
paths = (
{
closed = 0;
nodes = (
"486 700 LINE",
"461 0 LINE",
"426 84 OFFCURVE",
"112 600 OFFCURVE",
"83 699 CURVE",
"57 2 LINE"
);
}
);
width = 543;
}
);
},
{
color = 5;
glyphname = O.ss02;
lastChange = "2023-09-26 09:19:46 +0000";
layers = (
{
layerId = "6F9C6BB4-2DCF-443B-A55D-9CE049090094";
paths = (
{
closed = 0;
nodes = (
"140 170 LINE",
"74 170 OFFCURVE",
"44 234 OFFCURVE",
"44 317 CURVE SMOOTH",
"44 474 OFFCURVE",
"148 700 OFFCURVE",
"323 700 CURVE SMOOTH",
"479 700 OFFCURVE",
"564 565 OFFCURVE",
"564 394 CURVE SMOOTH",
"564 205 OFFCURVE",
"458 0 OFFCURVE",
"268 0 CURVE SMOOTH",
"190 0 OFFCURVE",
"128 30 OFFCURVE",
"89 77 CURVE"
);
}
);
width = 690;
}
);
},
{
color = 5;
glyphname = P.ss02;
lastChange = "2023-09-26 09:19:46 +0000";
layers = (
{
layerId = "6F9C6BB4-2DCF-443B-A55D-9CE049090094";
paths = (
{
closed = 0;
nodes = (
"57 700 LINE",
"339 700 LINE",
"399 700 OFFCURVE",
"511 695 OFFCURVE",
"511 543 CURVE SMOOTH",
"511 354 OFFCURVE",
"301 286 OFFCURVE",
"221 286 CURVE"
);
},
{
closed = 0;
nodes = (
"238 286 LINE"
);
},
{
closed = 0;
nodes = (
"157 -1 LINE",
"183 700 LINE"
);
}
);
width = 553;
}
);
},
{
color = 5;
glyphname = Q.ss02;
lastChange = "2023-09-26 09:19:46 +0000";
layers = (
{
layerId = "6F9C6BB4-2DCF-443B-A55D-9CE049090094";
paths = (
{
closed = 0;
nodes = (
"68 200 LINE",
"50 216 OFFCURVE",
"45 251 OFFCURVE",
"45 317 CURVE SMOOTH",
"45 474 OFFCURVE",
"149 700 OFFCURVE",
"324 700 CURVE SMOOTH",
"480 700 OFFCURVE",
"565 565 OFFCURVE",
"565 394 CURVE SMOOTH",
"565 205 OFFCURVE",
"459 0 OFFCURVE",
"269 0 CURVE SMOOTH",
"191 0 OFFCURVE",
"109 64 OFFCURVE",
"109 100 CURVE SMOOTH",
"109 121 OFFCURVE",
"150 140 OFFCURVE",
"211 140 CURVE SMOOTH",
"319 140 OFFCURVE",
"491 79 OFFCURVE",
"607 -146 CURVE"
);
}
);
width = 707;
}
);
},
{
color = 5;
glyphname = R.ss02;
lastChange = "2023-09-26 09:19:46 +0000";
layers = (
{
layerId = "6F9C6BB4-2DCF-443B-A55D-9CE049090094";
paths = (
{
closed = 0;
nodes = (
"57 700 LINE",
"334 700 LINE",
"387 700 OFFCURVE",
"486 696 OFFCURVE",
"486 561 CURVE SMOOTH",
"486 394 OFFCURVE",
"329 292 OFFCURVE",
"231 338 CURVE"
);
},
{
closed = 0;
nodes = (
"131 0 LINE",
"157 700 LINE"
);
},
{
closed = 0;
nodes = (
"198 378 LINE",
"410 95 LINE SMOOTH",
"441 53 OFFCURVE",
"493 0 OFFCURVE",
"545 0 CURVE SMOOTH"
);
}
);
width = 581;
}
);
},
{
color = 5;
glyphname = S.ss02;
lastChange = "2023-09-26 09:19:46 +0000";
layers = (
{
hints = (
{
horizontal = 1;
origin = "{0, 12}";
type = Delta;
settings = {
deltaV = {
"{100, 100, 0, 0, 0, 0}" = {
"62" = 0;
};
};
};
},
{
horizontal = 1;
origin = "{0, 11}";
type = Delta;
settings = {
deltaV = {
"{100, 100, 0, 0, 0, 0}" = {
"62" = 0;
};
};
};
},
{
horizontal = 1;
origin = "{0, 10}";
type = Delta;
settings = {
deltaV = {
"{100, 100, 0, 0, 0, 0}" = {
"62" = 0;
};
};
};
},
{
horizontal = 1;
origin = "{0, 9}";
type = Delta;
settings = {
deltaV = {
"{100, 100, 0, 0, 0, 0}" = {
"62" = 0;
};
};
};
},
{
horizontal = 1;
origin = "{0, 8}";
type = Delta;
settings = {
deltaV = {
"{100, 100, 0, 0, 0, 0}" = {
"62" = 0;
};
};
};
},
{
horizontal = 1;
origin = "{0, 7}";
type = Delta;
settings = {
deltaV = {
"{100, 100, 0, 0, 0, 0}" = {
"62" = 0;
};
};
};
},
{
horizontal = 1;
origin = "{0, 6}";
type = Delta;
settings = {
deltaV = {
"{100, 100, 0, 0, 0, 0}" = {
"62" = 0;
};
};
};
},
{
horizontal = 1;
origin = "{0, 5}";
type = Delta;
settings = {
deltaV = {
"{100, 100, 0, 0, 0, 0}" = {
"62" = 0;
};
};
};
},
{
horizontal = 1;
origin = "{0, 4}";
type = Delta;
settings = {
deltaV = {
"{100, 100, 0, 0, 0, 0}" = {
"62" = 0;
};
};
};
},
{
horizontal = 1;
origin = "{0, 3}";
type = Delta;
settings = {
deltaV = {
"{100, 100, 0, 0, 0, 0}" = {
"62" = 0;
};
};
};
},
{
horizontal = 1;
origin = "{0, 2}";
type = Delta;
settings = {
deltaV = {
"{100, 100, 0, 0, 0, 0}" = {
"62" = 0;
};
};
};
},
{
horizontal = 1;
origin = "{0, 1}";
type = Delta;
settings = {
deltaV = {
"{100, 100, 0, 0, 0, 0}" = {
"62" = 0;
};
};
};
},
{
horizontal = 1;
origin = "{0, 0}";
type = Delta;
settings = {
deltaV = {
"{100, 100, 0, 0, 0, 0}" = {
"62" = 0;
};
};
};
}
);
layerId = "6F9C6BB4-2DCF-443B-A55D-9CE049090094";
paths = (
{
closed = 0;
nodes = (
"309 623 LINE",
"306 671 OFFCURVE",
"270 700 OFFCURVE",
"214 700 CURVE SMOOTH",
"128 700 OFFCURVE",
"42 638 OFFCURVE",
"28 565 CURVE SMOOTH",
"-15 355 OFFCURVE",
"385 361 OFFCURVE",
"344 150 CURVE SMOOTH",
"326 66 OFFCURVE",
"227 0 OFFCURVE",
"117 0 CURVE SMOOTH",
"84 0 OFFCURVE",
"49 13 OFFCURVE",
"35 31 CURVE"
);
},
{
closed = 0;
nodes = (
"88 3 LINE SMOOTH",
"301 -33 OFFCURVE",
"449 50 OFFCURVE",
"501 150 CURVE SMOOTH"
);
}
);
width = 501;
}
);
},
{
color = 5;
glyphname = T.ss02;
lastChange = "2023-09-26 09:19:46 +0000";
layers = (
{
layerId = "6F9C6BB4-2DCF-443B-A55D-9CE049090094";
paths = (
{
closed = 0;
nodes = (
"319 700 LINE",
"294 0 LINE"
);
},
{
closed = 0;
nodes = (
"36 701 LINE",
"576 700 LINE"
);
}
);
width = 611;
}
);
},
{
color = 5;
glyphname = U.ss02;
lastChange = "2023-09-26 09:19:46 +0000";
layers = (
{
layerId = "6F9C6BB4-2DCF-443B-A55D-9CE049090094";
paths = (
{
closed = 0;
nodes = (
"532 0 LINE",
"499 0 OFFCURVE",
"498 38 OFFCURVE",
"501 119 CURVE SMOOTH",
"523 700 LINE"
);
},
{
closed = 0;
nodes = (
"149 700 LINE",
"132 173 LINE SMOOTH",
"129 68 OFFCURVE",
"187 0 OFFCURVE",
"259 0 CURVE SMOOTH",
"335 0 OFFCURVE",
"440 105 OFFCURVE",
"506 230 CURVE"
);
},
{
closed = 0;
nodes = (
"638 150 LINE SMOOTH",
"609 50 OFFCURVE",
"566 0 OFFCURVE",
"532 0 CURVE"
);
}
);
width = 638;
}
);
},
{
color = 5;
glyphname = V.ss02;
lastChange = "2023-09-26 09:19:46 +0000";
layers = (
{
layerId = "6F9C6BB4-2DCF-443B-A55D-9CE049090094";
paths = (
{
closed = 0;
nodes = (
"39 700 LINE",
"192 0 LINE",
"258 78 OFFCURVE",
"478 455 OFFCURVE",
"445 700 CURVE SMOOTH"
);
}
);
width = 492;
}
);
},
{
color = 5;
glyphname = W.ss02;
lastChange = "2023-09-26 09:19:46 +0000";
layers = (
{
layerId = "6F9C6BB4-2DCF-443B-A55D-9CE049090094";
paths = (
{
closed = 0;
nodes = (
"39 700 LINE",
"192 0 LINE",
"258 78 OFFCURVE",
"478 455 OFFCURVE",
"445 700 CURVE",
"598 0 LINE",
"664 78 OFFCURVE",
"884 455 OFFCURVE",
"851 700 CURVE SMOOTH"
);
}
);
width = 898;
}
);
},
{
color = 5;
glyphname = X.ss02;
lastChange = "2023-09-26 09:19:46 +0000";
layers = (
{
layerId = "6F9C6BB4-2DCF-443B-A55D-9CE049090094";
paths = (
{
closed = 0;
nodes = (
"101 0 LINE",
"552 700 LINE"
);
},
{
closed = 0;
nodes = (
"567 0 LINE",
"527 0 OFFCURVE",
"254 470 OFFCURVE",
"121 700 CURVE"
);
},
{
closed = 0;
nodes = (
"673 150 LINE SMOOTH",
"644 50 OFFCURVE",
"601 0 OFFCURVE",
"567 0 CURVE"
);
}
);
width = 673;
}
);
},
{
color = 5;
glyphname = Y.ss02;
lastChange = "2023-09-26 09:19:46 +0000";
layers = (
{
layerId = "6F9C6BB4-2DCF-443B-A55D-9CE049090094";
paths = (
{
closed = 0;
nodes = (
"79 705 LINE",
"61 173 LINE SMOOTH",
"57 68 OFFCURVE",
"65 0 OFFCURVE",
"137 0 CURVE SMOOTH",
"213 0 OFFCURVE",
"371 192 OFFCURVE",
"437 317 CURVE"
);
},
{
closed = 0;
nodes = (
"585 151 LINE",
"572 88 OFFCURVE",
"323 -25 OFFCURVE",
"323 -244 CURVE SMOOTH",
"323 -305 OFFCURVE",
"345 -347 OFFCURVE",
"384 -347 CURVE SMOOTH",
"436 -347 OFFCURVE",
"439 -285 OFFCURVE",
"437 -104 CURVE SMOOTH",
"435 51 OFFCURVE",
"430 206 OFFCURVE",
"437 361 CURVE SMOOTH",
"453 700 LINE"
);
}
);
width = 585;
}
);
},
{
color = 5;
glyphname = Z.ss02;
lastChange = "2023-09-26 09:20:01 +0000";
layers = (
{
layerId = "6F9C6BB4-2DCF-443B-A55D-9CE049090094";
paths = (
{
closed = 0;
nodes = (
"44 -7 LINE",
"103 26 OFFCURVE",
"397 0 OFFCURVE",
"464 0 CURVE SMOOTH",
"498 0 OFFCURVE",
"555 50 OFFCURVE",
"614 150 CURVE SMOOTH"
);
},
{
closed = 0;
nodes = (
"518 733 LINE",
"19 -40 LINE"
);
},
{
closed = 0;
nodes = (
"26 700 LINE",
"497 700 LINE"
);
}
);
width = 614;
}
);
},
{
glyphname = A.ss03;
lastChange = "2023-09-26 09:17:37 +0000";
layers = (
{
background = {
paths = (
{
closed = 0;
nodes = (
"443 248 LINE",
"728 248 LINE"
);
},
{
closed = 0;
nodes = (
"752 700 LINE",
"472 261 OFFCURVE",
"307 1 OFFCURVE",
"183 1 CURVE SMOOTH",
"37 8 OFFCURVE",
"33 141 OFFCURVE",
"187 141 CURVE SMOOTH",
"271 141 OFFCURVE",
"403 80 OFFCURVE",
"493 -145 CURVE"
);
},
{
closed = 0;
nodes = (
"950 230 LINE",
"888 83 OFFCURVE",
"794 0 OFFCURVE",
"759 0 CURVE SMOOTH",
"713 0 OFFCURVE",
"721 147 OFFCURVE",
"740 476 CURVE SMOOTH",
"744 552 OFFCURVE",
"747 604 OFFCURVE",
"752 700 CURVE",
"676 700 OFFCURVE",
"594 682 OFFCURVE",
"525 667 CURVE SMOOTH",
"416 643 OFFCURVE",
"341 626 OFFCURVE",
"378 700 CURVE"
);
}
);
};
layerId = "6F9C6BB4-2DCF-443B-A55D-9CE049090094";
paths = (
{
closed = 0;
nodes = (
"443 248 LINE",
"728 248 LINE"
);
},
{
closed = 0;
nodes = (
"752 700 LINE",
"376 141 OFFCURVE",
"292 1 OFFCURVE",
"164 1 CURVE",
"104 4 OFFCURVE",
"73 40 OFFCURVE",
"73 74 CURVE SMOOTH",
"73 108 OFFCURVE",
"110 141 OFFCURVE",
"187 141 CURVE SMOOTH",
"271 141 OFFCURVE",
"403 80 OFFCURVE",
"493 -145 CURVE"
);
},
{
closed = 0;
nodes = (
"950 230 LINE",
"888 83 OFFCURVE",
"794 0 OFFCURVE",
"759 0 CURVE SMOOTH",
"713 0 OFFCURVE",
"721 147 OFFCURVE",
"740 476 CURVE SMOOTH",
"752 700 LINE",
"676 700 OFFCURVE",
"594 682 OFFCURVE",
"525 667 CURVE SMOOTH",
"416 643 OFFCURVE",
"281 604 OFFCURVE",
"241 700 CURVE"
);
}
);
width = 945;
}
);
},
{
glyphname = C.ss03;
lastChange = "2023-09-26 09:17:33 +0000";
layers = (
{
background = {
paths = (
{
closed = 0;
nodes = (
"600 230 LINE",
"524 105 OFFCURVE",
"404 0 OFFCURVE",
"316 0 CURVE SMOOTH",
"234 0 OFFCURVE",
"177 84 OFFCURVE",
"170 213 CURVE SMOOTH",
"159 415 OFFCURVE",
"234 700 OFFCURVE",
"372 700 CURVE SMOOTH",
"510 700 OFFCURVE",
"576 714 OFFCURVE",
"576 610 CURVE SMOOTH",
"576 501 OFFCURVE",
"430 411 OFFCURVE",
"310 411 CURVE SMOOTH",
"230 411 OFFCURVE",
"143 449 OFFCURVE",
"72 562 CURVE"
);
}
);
};
layerId = "6F9C6BB4-2DCF-443B-A55D-9CE049090094";
paths = (
{
closed = 0;
nodes = (
"600 230 LINE",
"524 105 OFFCURVE",
"404 0 OFFCURVE",
"316 0 CURVE SMOOTH",
"234 0 OFFCURVE",
"177 84 OFFCURVE",
"170 213 CURVE SMOOTH",
"155 490 OFFCURVE",
"309 697 OFFCURVE",
"504 697 CURVE SMOOTH",
"547 697 OFFCURVE",
"577 671 OFFCURVE",
"577 612 CURVE SMOOTH",
"578 487 OFFCURVE",
"437 412 OFFCURVE",
"291 412 CURVE SMOOTH",
"211 412 OFFCURVE",
"130 434 OFFCURVE",
"70 484 CURVE"
);
}
);
width = 595;
}
);
},
{
glyphname = H.ss03;
lastChange = "2023-09-26 09:17:33 +0000";
layers = (
{
background = {
paths = (
{
closed = 0;
nodes = (
"299 350 LINE",
"713 350 LINE"
);
},
{
closed = 0;
nodes = (
"927 230 LINE",
"865 83 OFFCURVE",
"771 0 OFFCURVE",
"736 0 CURVE SMOOTH",
"703 0 OFFCURVE",
"702 38 OFFCURVE",
"705 119 CURVE SMOOTH",
"727 630 LINE SMOOTH",
"729 684 OFFCURVE",
"721 793 OFFCURVE",
"777 793 CURVE SMOOTH",
"801 793 OFFCURVE",
"819 773 OFFCURVE",
"819 750 CURVE SMOOTH",
"819 576 OFFCURVE",
"299 829 OFFCURVE",
"194 829 CURVE SMOOTH",
"149 829 OFFCURVE",
"129 738 OFFCURVE",
"157 684 CURVE"
);
},
{
closed = 0;
nodes = (
"310 653 LINE",
"293 192 LINE SMOOTH",
"289 90 OFFCURVE",
"254 0 OFFCURVE",
"173 1 CURVE SMOOTH",
"107 2 OFFCURVE",
"73 37 OFFCURVE",
"73 72 CURVE SMOOTH",
"73 107 OFFCURVE",
"110 141 OFFCURVE",
"187 141 CURVE SMOOTH",
"271 141 OFFCURVE",
"403 80 OFFCURVE",
"493 -145 CURVE"
);
}
);
};
layerId = "6F9C6BB4-2DCF-443B-A55D-9CE049090094";
paths = (
{
closed = 0;
nodes = (
"299 350 LINE",
"713 350 LINE"
);
},
{
closed = 0;
nodes = (
"927 230 LINE",
"865 83 OFFCURVE",
"771 0 OFFCURVE",
"736 0 CURVE SMOOTH",
"703 0 OFFCURVE",
"702 38 OFFCURVE",
"705 119 CURVE SMOOTH",
"727 630 LINE SMOOTH",
"729 684 OFFCURVE",
"721 793 OFFCURVE",
"777 793 CURVE SMOOTH",
"801 793 OFFCURVE",
"819 773 OFFCURVE",
"819 750 CURVE SMOOTH",
"819 705 OFFCURVE",
"786 689 OFFCURVE",
"733 689 CURVE SMOOTH",
"587 689 OFFCURVE",
"362 817 OFFCURVE",
"222 817 CURVE SMOOTH",
"178 817 OFFCURVE",
"141 805 OFFCURVE",
"118 771 CURVE"
);
},
{
closed = 0;
nodes = (
"310 653 LINE",
"293 192 LINE SMOOTH",
"289 90 OFFCURVE",
"254 0 OFFCURVE",
"173 1 CURVE SMOOTH",
"107 2 OFFCURVE",
"73 37 OFFCURVE",
"73 72 CURVE SMOOTH",
"73 107 OFFCURVE",
"110 141 OFFCURVE",
"187 141 CURVE SMOOTH",
"271 141 OFFCURVE",
"403 80 OFFCURVE",
"493 -145 CURVE"
);
}
);
width = 922;
}
);
},
{
glyphname = L.ss03;
lastChange = "2023-09-26 09:17:37 +0000";
layers = (
{
layerId = "6F9C6BB4-2DCF-443B-A55D-9CE049090094";
paths = (
{
closed = 0;
nodes = (
"458 0 LINE",
"191 0 LINE SMOOTH",
"164 0 OFFCURVE",
"162 12 OFFCURVE",
"163 39 CURVE SMOOTH",
"184 588 LINE SMOOTH",
"188 699 OFFCURVE",
"182 700 OFFCURVE",
"88 700 CURVE"
);
}
);
width = 546;
}
);
},
{
glyphname = M.ss03;
lastChange = "2023-09-26 09:17:33 +0000";
layers = (
{
background = {
paths = (
{
closed = 0;
nodes = (
"1264 230 LINE",
"1202 83 OFFCURVE",
"1108 0 OFFCURVE",
"1073 0 CURVE SMOOTH",
"1016 0 OFFCURVE",
"1040 189 OFFCURVE",
"1066 700 CURVE",
"931 273 OFFCURVE",
"781 104 OFFCURVE",
"715 54 CURVE",
"660 144 OFFCURVE",
"597 335 OFFCURVE",
"581 700 CURVE",
"375 113 LINE SMOOTH",
"346 30 OFFCURVE",
"313 1 OFFCURVE",
"244 1 CURVE SMOOTH",
"166 1 OFFCURVE",
"84 65 OFFCURVE",
"84 101 CURVE SMOOTH",
"84 159 OFFCURVE",
"401 206 OFFCURVE",
"582 -145 CURVE"
);
}
);
};
layerId = "6F9C6BB4-2DCF-443B-A55D-9CE049090094";
paths = (
{
closed = 0;
nodes = (
"1264 230 LINE",
"1202 83 OFFCURVE",
"1108 0 OFFCURVE",
"1073 0 CURVE SMOOTH",
"1016 0 OFFCURVE",
"1040 189 OFFCURVE",
"1066 700 CURVE",
"931 273 OFFCURVE",
"781 104 OFFCURVE",
"715 54 CURVE",
"660 144 OFFCURVE",
"597 335 OFFCURVE",
"581 700 CURVE",
"380 128 OFFCURVE",
"363 -8 OFFCURVE",
"182 1 CURVE SMOOTH",
"36 8 OFFCURVE",
"32 141 OFFCURVE",
"186 141 CURVE SMOOTH",
"270 141 OFFCURVE",
"402 80 OFFCURVE",
"492 -145 CURVE"
);
},
{
closed = 0;
nodes = (
"581 700 LINE",
"522 700 OFFCURVE",
"458 682 OFFCURVE",
"404 667 CURVE SMOOTH",
"319 643 OFFCURVE",
"213 604 OFFCURVE",
"182 700 CURVE"
);
}
);
width = 1259;
}
);
},
{
glyphname = T.ss03;
lastChange = "2023-09-26 09:17:33 +0000";
layers = (
{
background = {
paths = (
{
closed = 0;
nodes = (
"128 634 LINE",
"108 692 OFFCURVE",
"156 709 OFFCURVE",
"197 709 CURVE SMOOTH",
"309 709 OFFCURVE",
"443 690 OFFCURVE",
"537 690 CURVE SMOOTH",
"578 690 OFFCURVE",
"626 707 OFFCURVE",
"606 765 CURVE"
);
},
{
closed = 0;
nodes = (
"402 700 LINE",
"377 0 LINE"
);
}
);
};
layerId = "6F9C6BB4-2DCF-443B-A55D-9CE049090094";
paths = (
{
closed = 0;
nodes = (
"77 634 LINE",
"57 692 OFFCURVE",
"105 709 OFFCURVE",
"146 709 CURVE SMOOTH",
"284 709 OFFCURVE",
"449 690 OFFCURVE",
"566 690 CURVE SMOOTH",
"632 690 OFFCURVE",
"658 732 OFFCURVE",
"618 759 CURVE"
);
},
{
closed = 0;
nodes = (
"367 700 LINE",
"342 0 LINE"
);
}
);
width = 702;
}
);
},
{
color = 0;
glyphname = b;
lastChange = "2023-09-26 11:33:21 +0000";
layers = (
{
background = {
paths = (
{
closed = 0;
nodes = (
"347 310 LINE",
"311 289 OFFCURVE",
"259 269 OFFCURVE",
"210 269 CURVE SMOOTH",
"92 269 OFFCURVE",
"39 363 OFFCURVE",
"154 363 CURVE SMOOTH",
"228 363 OFFCURVE",
"254 303 OFFCURVE",
"254 231 CURVE SMOOTH",
"254 154 OFFCURVE",
"213 0 OFFCURVE",
"103 0 CURVE SMOOTH",
"18 0 OFFCURVE",
"-13 176 OFFCURVE",
"-13 353 CURVE SMOOTH",
"-13 411 OFFCURVE",
"-13 709 OFFCURVE",
"77 709 CURVE SMOOTH",
"117 709 OFFCURVE",
"131 667 OFFCURVE",
"131 606 CURVE SMOOTH",
"131 490 OFFCURVE",
"63 272 OFFCURVE",
"2 153 CURVE SMOOTH"
);
}
);
};
layerId = "6F9C6BB4-2DCF-443B-A55D-9CE049090094";
paths = (
{
closed = 0;
nodes = (
"5 153 LINE SMOOTH",
"66 272 OFFCURVE",
"134 490 OFFCURVE",
"134 606 CURVE SMOOTH",
"134 667 OFFCURVE",
"120 709 OFFCURVE",
"80 709 CURVE SMOOTH",
"-10 709 OFFCURVE",
"-10 411 OFFCURVE",
"-10 353 CURVE SMOOTH",
"-10 90 OFFCURVE",
"35 0 OFFCURVE",
"104 0 CURVE SMOOTH",
"186 0 OFFCURVE",
"230 100 OFFCURVE",
"230 189 CURVE SMOOTH",
"230 275 OFFCURVE",
"176 315 OFFCURVE",
"138 334 CURVE",
"131 309 OFFCURVE",
"215 217 OFFCURVE",
"348 310 CURVE"
);
}
);
width = 348;
}
);
unicode = 0062;
},
{
color = 0;
glyphname = c;
lastChange = "2023-09-25 16:13:13 +0000";
layers = (
{
background = {
components = (
{
alignment = -1;
name = _part.bucle;
}
);
};
layerId = "6F9C6BB4-2DCF-443B-A55D-9CE049090094";
paths = (
{
closed = 0;
nodes = (
"313 150 LINE",
"293 79 OFFCURVE",
"213 0 OFFCURVE",
"116 0 CURVE SMOOTH",
"53 0 OFFCURVE",
"0 45 OFFCURVE",
"0 182 CURVE SMOOTH",
"0 350 OFFCURVE",
"75 387 OFFCURVE",
"231 354 CURVE"
);
}
);
width = 313;
}
);
unicode = 0063;
},
{
color = 0;
glyphname = e;
lastChange = "2023-09-26 10:59:19 +0000";
layers = (
{
background = {
paths = (
{
closed = 0;
nodes = (
"36 64 LINE",
"93 124 OFFCURVE",
"126 214 OFFCURVE",
"126 279 CURVE SMOOTH",
"126 326 OFFCURVE",
"109 360 OFFCURVE",
"69 360 CURVE SMOOTH",
"19 360 OFFCURVE",
"0 260 OFFCURVE",
"0 206 CURVE SMOOTH",
"0 76 OFFCURVE",
"52 -2 OFFCURVE",
"130 -2 CURVE SMOOTH",
"176 -2 OFFCURVE",
"226 45 OFFCURVE",
"260 150 CURVE SMOOTH"
);
}
);
};
layerId = "6F9C6BB4-2DCF-443B-A55D-9CE049090094";
paths = (
{
closed = 0;
nodes = (
"260 150 LINE SMOOTH",
"226 45 OFFCURVE",
"176 -2 OFFCURVE",
"130 -2 CURVE SMOOTH",
"52 -2 OFFCURVE",
"0 76 OFFCURVE",
"0 206 CURVE SMOOTH",
"0 260 OFFCURVE",
"19 360 OFFCURVE",
"69 360 CURVE SMOOTH",
"109 360 OFFCURVE",
"126 326 OFFCURVE",
"126 279 CURVE SMOOTH",
"126 214 OFFCURVE",
"93 124 OFFCURVE",
"36 64 CURVE SMOOTH",
"26 54 OFFCURVE",
"12 43 OFFCURVE",
"0 37 CURVE"
);
}
);
width = 260;
}
);
unicode = 0065;
},
{
color = 0;
glyphname = f;
lastChange = "2023-09-25 12:00:08 +0000";
layers = (
{
background = {
paths = (
{
closed = 0;
nodes = (
"-24 103 LINE",
"84 290 OFFCURVE",
"166 735 OFFCURVE",
"36 735 CURVE SMOOTH",
"-5 735 OFFCURVE",
"-33 673 OFFCURVE",
"-33 467 CURVE SMOOTH",
"-33 373 OFFCURVE",
"32 -409 OFFCURVE",
"-62 -409 CURVE SMOOTH",
"-98 -409 OFFCURVE",
"-117 -372 OFFCURVE",
"-117 -308 CURVE SMOOTH",
"-117 -84 OFFCURVE",
"142 -24 OFFCURVE",
"206 150 CURVE"
);
}
);
};
layerId = "6F9C6BB4-2DCF-443B-A55D-9CE049090094";
paths = (
{
closed = 0;
nodes = (
"172 149 LINE",
"159 86 OFFCURVE",
"-90 -27 OFFCURVE",
"-90 -246 CURVE SMOOTH",
"-90 -307 OFFCURVE",
"-68 -349 OFFCURVE",
"-29 -349 CURVE SMOOTH",
"23 -349 OFFCURVE",
"39 -287 OFFCURVE",
"24 -106 CURVE SMOOTH",
"12 47 OFFCURVE",
"-13 200 OFFCURVE",
"-13 353 CURVE SMOOTH",
"-13 412 OFFCURVE",
"-13 709 OFFCURVE",
"77 709 CURVE SMOOTH",
"117 709 OFFCURVE",
"131 667 OFFCURVE",
"131 606 CURVE SMOOTH",
"131 490 OFFCURVE",
"63 272 OFFCURVE",
"2 153 CURVE SMOOTH"
);
}
);
width = 172;
}
);
unicode = 0066;
},
{
color = 0;
glyphname = g;
lastChange = "2023-09-25 10:12:39 +0000";
layers = (
{
background = {
components = (
{
alignment = -1;
name = _part.n.tr.entra.sale;
transform = "{-1, 0, 0, -1, 390, 150}";
},
{
alignment = -1;
name = _part.right.stem;
transform = "{1, 0, 0, 1, 231, 0}";
}
);
paths = (
{
closed = 0;
nodes = (
"256 68 LINE",
"172 -31 OFFCURVE",
"118 -179 OFFCURVE",
"118 -246 CURVE SMOOTH",
"118 -307 OFFCURVE",
"140 -349 OFFCURVE",
"190 -349 CURVE SMOOTH",
"231 -349 OFFCURVE",
"232 -287 OFFCURVE",
"232 -106 CURVE SMOOTH",
"232 360 LINE"
);
}
);
};
components = (
{
alignment = -1;
name = _part.bucle;
}
);
guideLines = (
{
angle = 90;
position = "{113, 74}";
}
);
layerId = "6F9C6BB4-2DCF-443B-A55D-9CE049090094";
paths = (
{
closed = 0;
nodes = (
"380 149 LINE",
"367 86 OFFCURVE",
"118 -27 OFFCURVE",
"118 -246 CURVE SMOOTH",
"118 -307 OFFCURVE",
"140 -349 OFFCURVE",
"179 -349 CURVE SMOOTH",
"231 -349 OFFCURVE",
"232 -287 OFFCURVE",
"232 -106 CURVE SMOOTH",
"232 360 LINE"
);
}
);
width = 380;
}
);
unicode = 0067;
},
{
color = 0;
glyphname = h;
lastChange = "2023-09-25 10:27:32 +0000";
layers = (
{
background = {
paths = (
{
closed = 0;
nodes = (
"-12 293 LINE",
"72 392 OFFCURVE",
"126 540 OFFCURVE",
"126 607 CURVE SMOOTH",
"126 668 OFFCURVE",
"104 710 OFFCURVE",
"54 710 CURVE SMOOTH",
"13 710 OFFCURVE",
"12 648 OFFCURVE",
"12 467 CURVE SMOOTH",
"12 1 LINE"
);
},
{
closed = 0;
nodes = (
"12 150 LINE SMOOTH",
"12 290 OFFCURVE",
"73 360 OFFCURVE",
"126 360 CURVE SMOOTH",
"181 360 OFFCURVE",
"206 319 OFFCURVE",
"206 227 CURVE SMOOTH",
"206 100 LINE SMOOTH",
"206 30 OFFCURVE",
"229 0 OFFCURVE",
"259 0 CURVE"
);
}
);
};
components = (
{
name = _part.n.tr.entra.sale;
transform = "{1, 0, 0, 1, 258, 0}";
}
);
guideLines = (
{
angle = 84.5324;
position = "{-41, 351}";
}
);
layerId = "6F9C6BB4-2DCF-443B-A55D-9CE049090094";
paths = (
{
closed = 0;
nodes = (
"3 250 LINE",
"50 343 OFFCURVE",
"126 498 OFFCURVE",
"126 606 CURVE SMOOTH",
"126 655 OFFCURVE",
"118 709 OFFCURVE",
"70 709 CURVE SMOOTH",
"0 709 OFFCURVE",
"0 561 OFFCURVE",
"0 454 CURVE SMOOTH",
"0 0 LINE"
);
},
{
closed = 0;
nodes = (
"0 114 LINE",
"14 304 OFFCURVE",
"91 360 OFFCURVE",
"126 360 CURVE SMOOTH",
"181 360 OFFCURVE",
"206 319 OFFCURVE",
"206 227 CURVE SMOOTH",
"206 100 LINE SMOOTH",
"206 30 OFFCURVE",
"229 0 OFFCURVE",
"259 0 CURVE"
);
}
);
width = 364;
}
);
unicode = 0068;
},
{
color = 0;
glyphname = i;
lastChange = "2023-09-26 11:05:19 +0000";
layers = (
{
background = {
components = (
{
name = idotless;
}
);
};
components = (
{
name = dotaccentcomb;
transform = "{1, 0, 0, 1, -58, 0}";
}
);
layerId = "6F9C6BB4-2DCF-443B-A55D-9CE049090094";
paths = (
{
closed = 0;
nodes = (
"175 150 LINE SMOOTH",
"151 46 OFFCURVE",
"108 0 OFFCURVE",
"58 0 CURVE SMOOTH",
"28 0 OFFCURVE",
"0 30 OFFCURVE",
"0 100 CURVE SMOOTH",
"0 357 LINE"
);
}
);
width = 175;
}
);
unicode = 0069;
},
{
glyphname = idotless;
lastChange = "2023-09-25 08:47:18 +0000";
layers = (
{
background = {
paths = (
{
closed = 0;
nodes = (
"-122 311 LINE SMOOTH",
"-178 360 LINE",
"-191 319 OFFCURVE",
"-204 279 OFFCURVE",
"-226 230 CURVE"
);
}
);
};
components = (
{
alignment = -1;
name = _part.n.tr.entra.sale;
transform = "{1, 0, 0, 1, 53, 0}";
},
{
alignment = -1;
name = _part.right.stem;
}
);
guideLines = (
{
position = "{-57, 161}";
}
);
layerId = "6F9C6BB4-2DCF-443B-A55D-9CE049090094";
width = 159;
}
);
unicode = 0131;
},
{
color = 0;
glyphname = j;
lastChange = "2023-09-25 12:00:08 +0000";
layers = (
{
background = {
components = (
{
name = jdotless;
transform = "{1, 0, 0, 1, -44, 0}";
},
{
name = dotaccentcomb;
transform = "{1, 0, 0, 1, -44, 0}";
}
);
};
components = (
{
name = dotaccentcomb;
transform = "{1, 0, 0, 1, 2, 0}";
}
);
layerId = "6F9C6BB4-2DCF-443B-A55D-9CE049090094";
paths = (
{
closed = 0;
nodes = (
"206 149 LINE",
"193 86 OFFCURVE",
"-56 -27 OFFCURVE",
"-56 -246 CURVE SMOOTH",
"-56 -307 OFFCURVE",
"-34 -349 OFFCURVE",
"5 -349 CURVE SMOOTH",
"57 -349 OFFCURVE",
"58 -287 OFFCURVE",
"58 -106 CURVE SMOOTH",
"58 360 LINE",
"44 307 OFFCURVE",
"29 250 OFFCURVE",
"0 150 CURVE"
);
}
);
width = 206;
}
);
unicode = 006A;
},
{
glyphname = k;
lastChange = "2023-09-25 15:26:30 +0000";
layers = (
{
background = {
paths = (
{
closed = 0;
nodes = (
"420 230 LINE",
"364 83 OFFCURVE",
"280 0 OFFCURVE",
"249 0 CURVE SMOOTH",
"216 0 OFFCURVE",
"215 38 OFFCURVE",
"218 119 CURVE SMOOTH",
"222 219 LINE SMOOTH",
"227 337 OFFCURVE",
"219 360 OFFCURVE",
"179 360 CURVE SMOOTH",
"124 360 OFFCURVE",
"6 179 OFFCURVE",
"3 91 CURVE SMOOTH",
"0 0 LINE"
);
}
);
};
components = (
{
name = _part.n.tr.entra.sale;
transform = "{1, 0, 0, 1, 216, 0}";
}
);
layerId = "6F9C6BB4-2DCF-443B-A55D-9CE049090094";
paths = (
{
closed = 0;
nodes = (
"216 0 LINE",
"151 0 OFFCURVE",
"96 77 OFFCURVE",
"51 144 CURVE",
"168 163 OFFCURVE",
"219 232 OFFCURVE",
"219 296 CURVE SMOOTH",
"219 331 OFFCURVE",
"197 360 OFFCURVE",
"176 360 CURVE SMOOTH",
"121 360 OFFCURVE",
"3 179 OFFCURVE",
"0 91 CURVE SMOOTH"
);
},
{
closed = 0;
nodes = (
"3 250 LINE",
"50 343 OFFCURVE",
"126 498 OFFCURVE",
"126 606 CURVE SMOOTH",
"126 655 OFFCURVE",
"118 709 OFFCURVE",
"70 709 CURVE SMOOTH",
"0 709 OFFCURVE",
"0 561 OFFCURVE",
"0 454 CURVE SMOOTH",
"0 0 LINE"
);
}
);
width = 322;
}
);
unicode = 006B;
},
{
color = 0;
glyphname = l;
lastChange = "2023-09-25 10:18:21 +0000";
layers = (
{
background = {
paths = (
{
closed = 0;
nodes = (
"-26 293 LINE",
"58 392 OFFCURVE",
"112 540 OFFCURVE",
"112 607 CURVE SMOOTH",
"112 668 OFFCURVE",
"90 710 OFFCURVE",
"40 710 CURVE SMOOTH",
"-1 710 OFFCURVE",
"-2 648 OFFCURVE",
"-2 467 CURVE SMOOTH",
"-2 1 LINE"
);
}
);
};
components = (
{
name = _part.n.tr.entra.sale;
transform = "{1, 0, 0, 1, 86, 0}";
}
);
guideLines = (
{
angle = 84.5324;
position = "{-26, 351}";
}
);
layerId = "6F9C6BB4-2DCF-443B-A55D-9CE049090094";
paths = (
{
closed = 0;
nodes = (
"86 0 LINE",
"18 0 OFFCURVE",
"-13 176 OFFCURVE",
"-13 353 CURVE SMOOTH",
"-13 411 OFFCURVE",
"-13 709 OFFCURVE",
"77 709 CURVE SMOOTH",
"117 709 OFFCURVE",
"131 667 OFFCURVE",
"131 606 CURVE SMOOTH",
"131 490 OFFCURVE",
"63 272 OFFCURVE",
"2 153 CURVE SMOOTH"
);
}
);
width = 192;
}
);
unicode = 006C;
},
{
color = 0;
glyphname = m;
lastChange = "2023-09-25 09:00:23 +0000";
layers = (
{
background = {
paths = (
{
closed = 0;
nodes = (
"390 191 LINE",
"395 305 OFFCURVE",
"438 360 OFFCURVE",
"492 360 CURVE SMOOTH",
"551 360 OFFCURVE",
"584 316 OFFCURVE",
"584 227 CURVE SMOOTH",
"584 100 LINE SMOOTH",
"584 30 OFFCURVE",
"607 0 OFFCURVE",
"637 0 CURVE"
);
},
{
closed = 0;
nodes = (
"201 0 LINE",
"201 227 LINE SMOOTH",
"201 316 OFFCURVE",
"183 360 OFFCURVE",
"127 360 CURVE SMOOTH",
"45 360 OFFCURVE",
"26 281 OFFCURVE",
"0 120 CURVE"
);
},
{
closed = 0;
nodes = (
"390 0 LINE",
"390 227 LINE SMOOTH",
"390 316 OFFCURVE",
"372 360 OFFCURVE",
"311 360 CURVE SMOOTH",
"247 360 OFFCURVE",
"206 308 OFFCURVE",
"201 192 CURVE SMOOTH"
);
}
);
};
components = (
{
name = _part.n.tr.entra.sale;
transform = "{1, 0, 0, 1, 636, 0}";
}
);
guideLines = (
{
position = "{270, 191}";
}
);
layerId = "6F9C6BB4-2DCF-443B-A55D-9CE049090094";
paths = (
{
closed = 0;
nodes = (
"390 191 LINE",
"395 305 OFFCURVE",
"438 360 OFFCURVE",
"492 360 CURVE SMOOTH",
"551 360 OFFCURVE",
"584 316 OFFCURVE",
"584 227 CURVE SMOOTH",
"584 100 LINE SMOOTH",
"584 30 OFFCURVE",
"607 0 OFFCURVE",
"637 0 CURVE"
);
},
{
closed = 0;
nodes = (
"201 0 LINE",
"201 227 LINE SMOOTH",
"201 316 OFFCURVE",
"183 360 OFFCURVE",
"127 360 CURVE SMOOTH",
"45 360 OFFCURVE",
"36 281 OFFCURVE",
"0 150 CURVE"
);
},
{
closed = 0;
nodes = (
"390 0 LINE",
"390 227 LINE SMOOTH",
"390 316 OFFCURVE",
"372 360 OFFCURVE",
"311 360 CURVE SMOOTH",
"247 360 OFFCURVE",
"206 308 OFFCURVE",
"201 192 CURVE SMOOTH"
);
}
);
width = 742;
}
);
unicode = 006D;
},
{
color = 0;
glyphname = o;
lastChange = "2023-09-26 11:02:55 +0000";
layers = (
{
background = {
components = (
{
alignment = -1;
name = _part.n.tr.entra.sale;
transform = "{1, 0, 0, 1, 208, 0}";
}
);
};
layerId = "6F9C6BB4-2DCF-443B-A55D-9CE049090094";
paths = (
{
closed = 0;
nodes = (
"142 365 LINE SMOOTH",
"46 365 OFFCURVE",
"0 314 OFFCURVE",
"0 182 CURVE SMOOTH",
"0 59 OFFCURVE",
"32 0 OFFCURVE",
"107 0 CURVE SMOOTH",
"155 0 OFFCURVE",
"206 50 OFFCURVE",
"231 150 CURVE SMOOTH",
"256 250 OFFCURVE",
"245 365 OFFCURVE",
"142 365 CURVE"
);
},
{
closed = 0;
nodes = (
"324 250 LINE",
"300 234 OFFCURVE",
"266 222 OFFCURVE",
"212 222 CURVE SMOOTH",
"146 222 OFFCURVE",
"89 256 OFFCURVE",
"121 363 CURVE"
);
}
);
width = 324;
}
);
unicode = 006F;
},
{
color = 0;
glyphname = p;
lastChange = "2023-09-25 12:10:33 +0000";
layers = (
{
background = {
components = (
{
name = _part.n.tr.entra.sale;
transform = "{1, 0, 0, 1, 305, 0}";
}
);
paths = (
{
closed = 0;
nodes = (
"58 -349 LINE",
"58 360 LINE",
"44 307 OFFCURVE",
"29 250 OFFCURVE",
"0 150 CURVE"
);
},
{
closed = 0;
nodes = (
"58 191 LINE",
"63 305 OFFCURVE",
"106 360 OFFCURVE",
"160 360 CURVE SMOOTH",
"219 360 OFFCURVE",
"252 316 OFFCURVE",
"252 227 CURVE SMOOTH",
"252 100 LINE SMOOTH",
"252 30 OFFCURVE",
"275 0 OFFCURVE",
"305 0 CURVE"
);
}
);
};
components = (
{
name = _part.n.tr.entra.sale;
transform = "{1, 0, 0, 1, 305, 0}";
}
);
layerId = "6F9C6BB4-2DCF-443B-A55D-9CE049090094";
paths = (
{
closed = 0;
nodes = (
"58 -349 LINE",
"58 360 LINE",
"44 307 OFFCURVE",
"29 250 OFFCURVE",
"0 150 CURVE"
);
},
{
closed = 0;
nodes = (
"58 154 LINE",
"72 344 OFFCURVE",
"137 360 OFFCURVE",
"172 360 CURVE SMOOTH",
"227 360 OFFCURVE",
"252 319 OFFCURVE",
"252 227 CURVE SMOOTH",
"252 100 LINE SMOOTH",
"252 30 OFFCURVE",
"275 0 OFFCURVE",
"305 0 CURVE"
);
}
);
width = 411;
}
);
unicode = 0070;
},
{
color = 0;
glyphname = q;
lastChange = "2023-09-25 12:10:33 +0000";
layers = (
{
components = (
{
alignment = -1;
name = _part.bucle;
}
);
layerId = "6F9C6BB4-2DCF-443B-A55D-9CE049090094";
paths = (
{
closed = 0;
nodes = (
"368 150 LINE SMOOTH",
"339 40 OFFCURVE",
"266 0 OFFCURVE",
"232 0 CURVE"
);
},
{
closed = 0;
nodes = (
"231 357 LINE",
"231 100 LINE",
"231 -349 LINE"
);
}
);
width = 368;
}
);
unicode = 0071;
},
{
color = 0;
glyphname = r;
lastChange = "2023-09-25 09:00:23 +0000";
layers = (
{
background = {
paths = (
{
closed = 0;
nodes = (
"55 403 LINE",
"55 344 OFFCURVE",
"96 338 OFFCURVE",
"180 359 CURVE",
"142 219 OFFCURVE",
"101 0 OFFCURVE",
"164 0 CURVE SMOOTH",
"216 0 OFFCURVE",
"308 94 OFFCURVE",
"360 230 CURVE"
);
},
{
closed = 0;
nodes = (
"5 230 LINE",
"29 281 OFFCURVE",
"48 346 OFFCURVE",
"56 413 CURVE"
);
}
);
};
components = (
{
name = _part.n.tr.entra.sale;
transform = "{1, 0, 0, 1, 236, 0}";
}
);
layerId = "6F9C6BB4-2DCF-443B-A55D-9CE049090094";
paths = (
{
closed = 0;
nodes = (
"0 150 LINE",
"18 236 OFFCURVE",
"25 409 OFFCURVE",
"25 409 CURVE",
"66 366 OFFCURVE",
"112 347 OFFCURVE",
"157 359 CURVE SMOOTH",
"196 369 OFFCURVE",
"196 369 OFFCURVE",
"189 322 CURVE SMOOTH",
"176 234 OFFCURVE",
"172 167 OFFCURVE",
"172 116 CURVE SMOOTH",
"172 37 OFFCURVE",
"189 0 OFFCURVE",
"237 0 CURVE"
);
},
{
closed = 0;
nodes = (
"181 192 LINE"
);
}
);
width = 342;
}
);
unicode = 0072;
},
{
glyphname = s;
lastChange = "2023-09-25 15:37:40 +0000";
layers = (
{
background = {
paths = (
{
closed = 0;
nodes = (
"114 0 LINE",
"195 0 OFFCURVE",
"313 94 OFFCURVE",
"365 230 CURVE"
);
},
{
closed = 0;
nodes = (
"179 360 LINE",
"51 271 OFFCURVE",
"177 189 OFFCURVE",
"177 107 CURVE SMOOTH",
"177 51 OFFCURVE",
"141 0 OFFCURVE",
"84 0 CURVE SMOOTH",
"58 0 OFFCURVE",
"32 10 OFFCURVE",
"25 14 CURVE"
);
},
{
closed = 0;
nodes = (
"5 230 LINE",
"49 319 OFFCURVE",
"82 360 OFFCURVE",
"189 360 CURVE"
);
}
);
};
layerId = "6F9C6BB4-2DCF-443B-A55D-9CE049090094";
paths = (
{
closed = 0;
nodes = (
"0 150 LINE",
"29 250 OFFCURVE",
"55 307 OFFCURVE",
"138 360 CURVE",
"48 223 OFFCURVE",
"250 252 OFFCURVE",
"250 95 CURVE SMOOTH",
"250 41 OFFCURVE",
"209 2 OFFCURVE",
"165 2 CURVE SMOOTH",
"126 2 OFFCURVE",
"98 22 OFFCURVE",
"89 26 CURVE"
);
},
{
closed = 0;
nodes = (
"130 7 LINE",
"249 -27 OFFCURVE",
"321 16 OFFCURVE",
"360 150 CURVE SMOOTH"
);
}
);
width = 360;
}
);
unicode = 0073;
},
{
color = 0;
glyphname = t;
lastChange = "2023-09-25 15:33:39 +0000";
layers = (
{
background = {
paths = (
{
closed = 0;
nodes = (
"-81 360 LINE",
"220 360 LINE"
);
},
{
closed = 0;
nodes = (
"0 488 LINE",
"0 182 LINE SMOOTH",
"0 32 OFFCURVE",
"34 0 OFFCURVE",
"87 0 CURVE SMOOTH",
"153 0 OFFCURVE",
"233 66 OFFCURVE",
"260 150 CURVE"
);
}
);
};
layerId = "6F9C6BB4-2DCF-443B-A55D-9CE049090094";
paths = (
{
closed = 0;
nodes = (
"253 150 LINE SMOOTH",
"224 50 OFFCURVE",
"174 0 OFFCURVE",
"117 0 CURVE"
);
},
{
closed = 0;
nodes = (
"117 0 LINE",
"32 0 OFFCURVE",
"0 59 OFFCURVE",
"0 182 CURVE SMOOTH",
"0 469 LINE"
);
},
{
closed = 0;
nodes = (
"-81 360 LINE",
"180 360 LINE"
);
}
);
width = 253;
}
);
unicode = 0074;
},
{
color = 0;
glyphname = u;
lastChange = "2023-09-25 12:00:08 +0000";
layers = (
{
background = {
paths = (
{
closed = 0;
nodes = (
"50 270 LINE SMOOTH",
"53 360 LINE",
"40 319 OFFCURVE",
"27 279 OFFCURVE",
"5 230 CURVE"
);
},
{
closed = 0;
nodes = (
"267 230 LINE",
"205 83 OFFCURVE",
"111 0 OFFCURVE",
"76 0 CURVE SMOOTH",
"43 0 OFFCURVE",
"42 38 OFFCURVE",
"45 119 CURVE SMOOTH",
"50 270 LINE"
);
}
);
};
components = (
{
alignment = -1;
name = _part.n.tr.entra.sale;
transform = "{1, 0, 0, 1, 284, 0}";
},
{
alignment = -1;
name = _part.right.stem;
transform = "{1, 0, 0, 1, 231, 0}";
}
);
layerId = "6F9C6BB4-2DCF-443B-A55D-9CE049090094";
paths = (
{
closed = 0;
nodes = (
"231 150 LINE",
"206 50 OFFCURVE",
"155 0 OFFCURVE",
"107 0 CURVE SMOOTH",
"32 0 OFFCURVE",
"0 59 OFFCURVE",
"0 182 CURVE SMOOTH",
"0 359 LINE"
);
}
);
width = 390;
}
);
unicode = 0075;
},
{
color = 0;
glyphname = v;
lastChange = "2023-09-26 11:12:19 +0000";
layers = (
{
background = {
paths = (
{
closed = 0;
nodes = (
"494 310 LINE",
"465 289 OFFCURVE",
"422 269 OFFCURVE",
"382 269 CURVE SMOOTH",
"321 269 OFFCURVE",
"281 306 OFFCURVE",
"284 334 CURVE",
"355 300 OFFCURVE",
"376 245 OFFCURVE",
"376 182 CURVE SMOOTH",
"376 95 OFFCURVE",
"328 0 OFFCURVE",
"247 0 CURVE SMOOTH",
"155 0 OFFCURVE",
"183 148 OFFCURVE",
"191 227 CURVE SMOOTH",
"201 326 OFFCURVE",
"173 360 OFFCURVE",
"127 360 CURVE SMOOTH",
"45 360 OFFCURVE",
"26 281 OFFCURVE",
"0 150 CURVE"
);
}
);
};
guideLines = (
{
angle = 180;
lockAngle = 1;
position = "{145, 310}";
}
);
layerId = "6F9C6BB4-2DCF-443B-A55D-9CE049090094";
paths = (
{
closed = 0;
nodes = (
"491 250 LINE",
"413 195 OFFCURVE",
"305 266 OFFCURVE",
"261 314 CURVE",
"302 310 OFFCURVE",
"373 275 OFFCURVE",
"373 189 CURVE SMOOTH",
"373 100 OFFCURVE",
"329 0 OFFCURVE",
"247 0 CURVE SMOOTH",
"155 0 OFFCURVE",
"183 148 OFFCURVE",
"191 227 CURVE SMOOTH",
"201 326 OFFCURVE",
"173 360 OFFCURVE",
"127 360 CURVE SMOOTH",
"45 360 OFFCURVE",
"26 281 OFFCURVE",
"0 150 CURVE"
);
}
);
width = 491;
}
);
unicode = 0076;
},
{
glyphname = w;
lastChange = "2023-09-25 15:30:04 +0000";
layers = (
{
background = {
paths = (
{
closed = 0;
nodes = (
"685 310 LINE",
"656 289 OFFCURVE",
"613 269 OFFCURVE",
"573 269 CURVE SMOOTH",
"512 269 OFFCURVE",
"472 306 OFFCURVE",
"475 334 CURVE",
"546 300 OFFCURVE",
"567 245 OFFCURVE",
"567 182 CURVE SMOOTH",
"567 95 OFFCURVE",
"519 0 OFFCURVE",
"438 0 CURVE SMOOTH",
"346 0 OFFCURVE",
"374 148 OFFCURVE",
"382 227 CURVE SMOOTH"
);
},
{
closed = 0;
nodes = (
"376 182 LINE",
"376 95 OFFCURVE",
"328 0 OFFCURVE",
"247 0 CURVE SMOOTH",
"155 0 OFFCURVE",
"183 148 OFFCURVE",
"191 227 CURVE SMOOTH",
"201 326 OFFCURVE",
"173 360 OFFCURVE",
"127 360 CURVE SMOOTH",
"45 360 OFFCURVE",
"26 281 OFFCURVE",
"0 150 CURVE"
);
}
);
};
guideLines = (
{
angle = 85;
lockAngle = 1;
position = "{382, 227}";
}
);
layerId = "6F9C6BB4-2DCF-443B-A55D-9CE049090094";
paths = (
{
closed = 0;
nodes = (
"674 310 LINE",
"645 289 OFFCURVE",
"602 269 OFFCURVE",
"562 269 CURVE SMOOTH",
"501 269 OFFCURVE",
"461 306 OFFCURVE",
"464 334 CURVE",
"535 300 OFFCURVE",
"556 245 OFFCURVE",
"556 182 CURVE SMOOTH",
"556 95 OFFCURVE",
"508 0 OFFCURVE",
"427 0 CURVE SMOOTH",
"335 0 OFFCURVE",
"363 148 OFFCURVE",
"371 227 CURVE SMOOTH",
"380 319 LINE"
);
},
{
closed = 0;
nodes = (
"366 182 LINE",
"356 95 OFFCURVE",
"328 0 OFFCURVE",
"247 0 CURVE SMOOTH",
"155 0 OFFCURVE",
"183 148 OFFCURVE",
"191 227 CURVE SMOOTH",
"201 326 OFFCURVE",
"173 360 OFFCURVE",
"127 360 CURVE SMOOTH",
"45 360 OFFCURVE",
"26 281 OFFCURVE",
"0 150 CURVE"
);
}
);
width = 674;
}
);
leftMetricsKey = v;
rightMetricsKey = v;
unicode = 0077;
},
{
glyphname = x;
lastChange = "2023-09-25 16:04:42 +0000";
layers = (
{
background = {
paths = (
{
closed = 0;
nodes = (
"851 150 LINE",
"831 79 OFFCURVE",
"751 0 OFFCURVE",
"654 0 CURVE SMOOTH",
"591 0 OFFCURVE",
"538 45 OFFCURVE",
"538 182 CURVE SMOOTH",
"538 314 OFFCURVE",
"584 365 OFFCURVE",
"679 365 CURVE SMOOTH",
"731 365 OFFCURVE",
"774 342 OFFCURVE",
"774 290 CURVE SMOOTH",
"774 160 OFFCURVE",
"323 209 OFFCURVE",
"323 79 CURVE SMOOTH",
"323 22 OFFCURVE",
"373 2 OFFCURVE",
"394 2 CURVE SMOOTH",
"593 2 OFFCURVE",
"570 360 OFFCURVE",
"420 360 CURVE SMOOTH",
"313 360 OFFCURVE",
"302 290 OFFCURVE",
"254 150 CURVE"
);
}
);
};
layerId = "6F9C6BB4-2DCF-443B-A55D-9CE049090094";
paths = (
{
closed = 0;
nodes = (
"597 150 LINE",
"577 79 OFFCURVE",
"497 0 OFFCURVE",
"400 0 CURVE SMOOTH",
"337 0 OFFCURVE",
"284 45 OFFCURVE",
"284 182 CURVE SMOOTH",
"284 298 OFFCURVE",
"330 360 OFFCURVE",
"412 360 CURVE SMOOTH",
"464 360 OFFCURVE",
"520 326 OFFCURVE",
"520 290 CURVE SMOOTH",
"520 225 OFFCURVE",
"407 205 OFFCURVE",
"295 185 CURVE SMOOTH",
"113 151 OFFCURVE",
"62 104 OFFCURVE",
"62 67 CURVE SMOOTH",
"62 27 OFFCURVE",
"102 0 OFFCURVE",
"148 0 CURVE SMOOTH",
"211 0 OFFCURVE",
"284 49 OFFCURVE",
"284 181 CURVE SMOOTH",
"284 271 OFFCURVE",
"241 360 OFFCURVE",
"166 360 CURVE SMOOTH",
"70 360 OFFCURVE",
"51 304 OFFCURVE",
"14 191 CURVE SMOOTH",
"10 178 OFFCURVE",
"5 164 OFFCURVE",
"0 150 CURVE"
);
}
);
width = 597;
}
);
unicode = 0078;
},
{
color = 0;
glyphname = y;
lastChange = "2023-09-25 12:00:08 +0000";
layers = (
{
background = {
components = (
{
name = trazo.entrada.curvo;
},
{
name = bucle.descendente;
transform = "{1, 0, 0, 1, 199, 0}";
}
);
paths = (
{
closed = 0;
nodes = (
"326 360 LINE",
"323 270 LINE SMOOTH",
"317 102 OFFCURVE",
"245 1 OFFCURVE",
"186 1 CURVE SMOOTH",
"148 1 OFFCURVE",
"116 25 OFFCURVE",
"116 90 CURVE"
);
}
);
};
layerId = "6F9C6BB4-2DCF-443B-A55D-9CE049090094";
paths = (
{
closed = 0;
nodes = (
"376 182 LINE",
"378 82 OFFCURVE",
"318 1 OFFCURVE",
"262 1 CURVE SMOOTH",
"216 1 OFFCURVE",
"186 36 OFFCURVE",
"186 123 CURVE SMOOTH",
"186 166 OFFCURVE",
"190 214 OFFCURVE",
"192 257 CURVE SMOOTH",
"195 316 OFFCURVE",
"183 360 OFFCURVE",
"127 360 CURVE SMOOTH",
"45 360 OFFCURVE",
"26 281 OFFCURVE",
"0 150 CURVE"
);
},
{
closed = 0;
nodes = (
"525 149 LINE",
"495 8 OFFCURVE",
"260 -67 OFFCURVE",
"260 -239 CURVE SMOOTH",
"260 -289 OFFCURVE",
"286 -324 OFFCURVE",
"322 -324 CURVE SMOOTH",
"375 -324 OFFCURVE",
"376 -256 OFFCURVE",
"376 -100 CURVE SMOOTH",
"376 360 LINE"
);
}
);
width = 525;
}
);
unicode = 0079;
},
{
color = 0;
glyphname = z;
lastChange = "2023-09-25 12:00:08 +0000";
layers = (
{
background = {
components = (
{
name = g;
}
);
};
layerId = "6F9C6BB4-2DCF-443B-A55D-9CE049090094";
paths = (
{
closed = 0;
nodes = (
"380 149 LINE",
"356 60 OFFCURVE",
"299 16 OFFCURVE",
"245 -27 CURVE SMOOTH",
"48 -182 OFFCURVE",
"119 -349 OFFCURVE",
"179 -349 CURVE SMOOTH",
"218 -349 OFFCURVE",
"241 -288 OFFCURVE",
"241 -215 CURVE SMOOTH",
"241 -86 OFFCURVE",
"175 72 OFFCURVE",
"54 39 CURVE",
"310 -47 OFFCURVE",
"299 360 OFFCURVE",
"145 360 CURVE SMOOTH",
"45 360 OFFCURVE",
"26 281 OFFCURVE",
"0 150 CURVE"
);
}
);
width = 380;
}
);
unicode = 007A;
},
{
glyphname = z.alt;
lastChange = "2020-10-09 13:37:59 +0000";
layers = (
{
background = {
paths = (
{
closed = 0;
nodes = (
"5 230 LINE",
"27 279 OFFCURVE",
"40 319 OFFCURVE",
"53 360 CURVE",
"108 341 OFFCURVE",
"215 333 OFFCURVE",
"303 360 CURVE",
"6 1 LINE",
"81 2 OFFCURVE",
"124 0 OFFCURVE",
"213 0 CURVE SMOOTH",
"248 0 OFFCURVE",
"342 83 OFFCURVE",
"404 230 CURVE"
);
}
);
};
layerId = "6F9C6BB4-2DCF-443B-A55D-9CE049090094";
paths = (
{
closed = 0;
nodes = (
"5 230 LINE",
"27 279 OFFCURVE",
"40 319 OFFCURVE",
"53 360 CURVE",
"108 353 OFFCURVE",
"215 354 OFFCURVE",
"303 360 CURVE",
"0 0 LINE",
"71 0 OFFCURVE",
"171 0 OFFCURVE",
"227 0 CURVE",
"262 9 OFFCURVE",
"352 83 OFFCURVE",
"414 230 CURVE"
);
}
);
width = 409;
}
);
},
{
color = 0;
glyphname = n.alta;
lastChange = "2023-09-26 11:03:31 +0000";
layers = (
{
background = {
paths = (
{
closed = 0;
nodes = (
"201 191 LINE",
"206 305 OFFCURVE",
"249 360 OFFCURVE",
"303 360 CURVE SMOOTH",
"362 360 OFFCURVE",
"395 316 OFFCURVE",
"395 227 CURVE SMOOTH",
"395 100 LINE SMOOTH",
"395 30 OFFCURVE",
"418 0 OFFCURVE",
"448 0 CURVE"
);
},
{
closed = 0;
nodes = (
"201 0 LINE",
"201 227 LINE SMOOTH",
"201 316 OFFCURVE",
"183 360 OFFCURVE",
"127 360 CURVE SMOOTH",
"45 360 OFFCURVE",
"26 281 OFFCURVE",
"0 150 CURVE"
);
}
);
};
components = (
{
name = _part.n.tr.entra.sale;
transform = "{1, 0, 0, 1, 448, 0}";
}
);
layerId = "6F9C6BB4-2DCF-443B-A55D-9CE049090094";
paths = (
{
closed = 0;
nodes = (
"201 191 LINE",
"206 305 OFFCURVE",
"249 360 OFFCURVE",
"303 360 CURVE SMOOTH",
"362 360 OFFCURVE",
"395 316 OFFCURVE",
"395 227 CURVE SMOOTH",
"395 100 LINE SMOOTH",
"395 30 OFFCURVE",
"418 0 OFFCURVE",
"448 0 CURVE"
);
},
{
closed = 0;
nodes = (
"201 0 LINE",
"201 227 LINE SMOOTH",
"201 316 OFFCURVE",
"183 360 OFFCURVE",
"127 360 CURVE SMOOTH",
"52 360 OFFCURVE",
"58 290 OFFCURVE",
"0 250 CURVE"
);
}
);
width = 554;
}
);
},
{
color = 0;
glyphname = r.alta;
lastChange = "2023-09-26 11:12:33 +0000";
layers = (
{
background = {
paths = (
{
closed = 0;
nodes = (
"55 403 LINE",
"55 344 OFFCURVE",
"96 338 OFFCURVE",
"180 359 CURVE",
"142 219 OFFCURVE",
"101 0 OFFCURVE",
"164 0 CURVE SMOOTH",
"216 0 OFFCURVE",
"308 94 OFFCURVE",
"360 230 CURVE"
);
},
{
closed = 0;
nodes = (
"5 230 LINE",
"29 281 OFFCURVE",
"48 346 OFFCURVE",
"56 413 CURVE"
);
}
);
};
components = (
{
name = _part.n.tr.entra.sale;
transform = "{1, 0, 0, 1, 267, 0}";
}
);
layerId = "6F9C6BB4-2DCF-443B-A55D-9CE049090094";
paths = (
{
closed = 0;
nodes = (
"0 250 LINE",
"50 276 OFFCURVE",
"55 409 OFFCURVE",
"55 409 CURVE",
"96 366 OFFCURVE",
"142 347 OFFCURVE",
"187 359 CURVE SMOOTH",
"226 369 OFFCURVE",
"226 369 OFFCURVE",
"219 322 CURVE SMOOTH",
"206 234 OFFCURVE",
"202 167 OFFCURVE",
"202 116 CURVE SMOOTH",
"202 37 OFFCURVE",
"219 0 OFFCURVE",
"267 0 CURVE"
);
}
);
width = 373;
}
);
},
{
color = 0;
glyphname = g.baja;
lastChange = "2023-09-26 10:59:39 +0000";
layers = (
{
background = {
components = (
{
alignment = -1;
name = _part.n.tr.entra.sale;
transform = "{-1, 0, 0, -1, 390, 150}";
},
{
alignment = -1;
name = _part.right.stem;
transform = "{1, 0, 0, 1, 231, 0}";
}
);
paths = (
{
closed = 0;
nodes = (
"256 68 LINE",
"172 -31 OFFCURVE",
"118 -179 OFFCURVE",
"118 -246 CURVE SMOOTH",
"118 -307 OFFCURVE",
"140 -349 OFFCURVE",
"190 -349 CURVE SMOOTH",
"231 -349 OFFCURVE",
"232 -287 OFFCURVE",
"232 -106 CURVE SMOOTH",
"232 360 LINE"
);
}
);
};
components = (
{
alignment = -1;
name = _part.bucle;
}
);
guideLines = (
{
angle = 90;
position = "{113, 74}";
}
);
layerId = "6F9C6BB4-2DCF-443B-A55D-9CE049090094";
paths = (
{
closed = 0;
nodes = (
"380 37 LINE",
"277 -14 OFFCURVE",
"118 -27 OFFCURVE",
"118 -246 CURVE SMOOTH",
"118 -307 OFFCURVE",
"140 -349 OFFCURVE",
"179 -349 CURVE SMOOTH",
"231 -349 OFFCURVE",
"232 -287 OFFCURVE",
"232 -106 CURVE SMOOTH",
"232 360 LINE"
);
}
);
width = 380;
}
);
},
{
color = 0;
glyphname = o.baja;
lastChange = "2023-09-25 08:20:08 +0000";
layers = (
{
background = {
components = (
{
alignment = -1;
name = _part.n.tr.entra.sale;
transform = "{1, 0, 0, 1, 208, 0}";
}
);
};
layerId = "6F9C6BB4-2DCF-443B-A55D-9CE049090094";
paths = (
{
closed = 0;
nodes = (
"142 365 LINE SMOOTH",
"46 365 OFFCURVE",
"0 314 OFFCURVE",
"0 182 CURVE SMOOTH",
"0 59 OFFCURVE",
"32 0 OFFCURVE",
"107 0 CURVE SMOOTH",
"155 0 OFFCURVE",
"206 50 OFFCURVE",
"231 150 CURVE SMOOTH",
"256 250 OFFCURVE",
"245 365 OFFCURVE",
"142 365 CURVE"
);
},
{
closed = 0;
nodes = (
"121 363 LINE",
"121 364 OFFCURVE",
"104 310 OFFCURVE",
"104 251 CURVE SMOOTH",
"104 62 OFFCURVE",
"282 33 OFFCURVE",
"314 150 CURVE"
);
}
);
width = 314;
}
);
},
{
color = 0;
glyphname = u.baja;
lastChange = "2023-09-25 12:10:33 +0000";
layers = (
{
background = {
paths = (
{
closed = 0;
nodes = (
"50 270 LINE SMOOTH",
"53 360 LINE",
"40 319 OFFCURVE",
"27 279 OFFCURVE",
"5 230 CURVE"
);
},
{
closed = 0;
nodes = (
"267 230 LINE",
"205 83 OFFCURVE",
"111 0 OFFCURVE",
"76 0 CURVE SMOOTH",
"43 0 OFFCURVE",
"42 38 OFFCURVE",
"45 119 CURVE SMOOTH",
"50 270 LINE"
);
}
);
};
components = (
{
alignment = -1;
name = _part.right.stem;
transform = "{1, 0, 0, 1, 231, 0}";
}
);
layerId = "6F9C6BB4-2DCF-443B-A55D-9CE049090094";
paths = (
{
closed = 0;
nodes = (
"231 150 LINE",
"206 50 OFFCURVE",
"155 0 OFFCURVE",
"107 0 CURVE SMOOTH",
"32 0 OFFCURVE",
"0 59 OFFCURVE",
"0 182 CURVE SMOOTH",
"0 359 LINE"
);
}
);
width = 284;
}
);
},
{
color = 0;
glyphname = z.baja;
lastChange = "2023-09-26 11:07:31 +0000";
layers = (
{
background = {
paths = (
{
closed = 0;
nodes = (
"380 37 LINE",
"339 18 OFFCURVE",
"299 16 OFFCURVE",
"245 -27 CURVE SMOOTH",
"48 -182 OFFCURVE",
"119 -349 OFFCURVE",
"179 -349 CURVE SMOOTH",
"218 -349 OFFCURVE",
"241 -288 OFFCURVE",
"241 -215 CURVE SMOOTH",
"241 -86 OFFCURVE",
"175 72 OFFCURVE",
"54 39 CURVE",
"310 -47 OFFCURVE",
"299 360 OFFCURVE",
"145 360 CURVE SMOOTH",
"45 360 OFFCURVE",
"26 281 OFFCURVE",
"0 150 CURVE"
);
}
);
};
layerId = "6F9C6BB4-2DCF-443B-A55D-9CE049090094";
paths = (
{
closed = 0;
nodes = (
"380 37 LINE",
"221 -37 OFFCURVE",
"116 -96 OFFCURVE",
"116 -244 CURVE SMOOTH",
"116 -306 OFFCURVE",
"149 -349 OFFCURVE",
"179 -349 CURVE SMOOTH",
"218 -349 OFFCURVE",
"241 -288 OFFCURVE",
"241 -215 CURVE SMOOTH",
"241 -86 OFFCURVE",
"175 72 OFFCURVE",
"54 39 CURVE",
"310 -47 OFFCURVE",
"299 360 OFFCURVE",
"145 360 CURVE SMOOTH",
"45 360 OFFCURVE",
"26 281 OFFCURVE",
"0 150 CURVE"
);
}
);
width = 380;
}
);
},
{
color = 0;
glyphname = e.001;
lastChange = "2023-09-25 16:11:03 +0000";
layers = (
{
background = {
paths = (
{
closed = 0;
nodes = (
"20 0 LINE",
"157 0 OFFCURVE",
"244 173 OFFCURVE",
"244 279 CURVE SMOOTH",
"244 326 OFFCURVE",
"227 360 OFFCURVE",
"187 360 CURVE SMOOTH",
"137 360 OFFCURVE",
"118 260 OFFCURVE",
"118 206 CURVE SMOOTH",
"118 76 OFFCURVE",
"170 -2 OFFCURVE",
"228 -2 CURVE SMOOTH",
"274 -2 OFFCURVE",
"324 45 OFFCURVE",
"358 150 CURVE SMOOTH"
);
}
);
};
layerId = "6F9C6BB4-2DCF-443B-A55D-9CE049090094";
paths = (
{
closed = 0;
nodes = (
"0 0 LINE",
"137 0 OFFCURVE",
"224 173 OFFCURVE",
"224 279 CURVE SMOOTH",
"224 326 OFFCURVE",
"207 360 OFFCURVE",
"167 360 CURVE SMOOTH",
"117 360 OFFCURVE",
"98 260 OFFCURVE",
"98 206 CURVE SMOOTH",
"98 76 OFFCURVE",
"150 -2 OFFCURVE",
"228 -2 CURVE SMOOTH",
"274 -2 OFFCURVE",
"324 45 OFFCURVE",
"358 150 CURVE SMOOTH"
);
}
);
width = 358;
}
);
},
{
color = 0;
glyphname = a.init;
lastChange = "2023-09-25 07:24:46 +0000";
layers = (
{
background = {
components = (
{
alignment = -1;
name = _part.n.ground;
transform = "{-1, 0, 0, -1, 375, 360}";
}
);
};
components = (
{
alignment = -1;
name = _part.n.tr.entra.sale;
transform = "{1, 0, 0, 1, 390, 0}";
},
{
alignment = -1;
name = _part.n.tr.entra.sale;
}
);
layerId = "6F9C6BB4-2DCF-443B-A55D-9CE049090094";
paths = (
{
closed = 0;
nodes = (
"337 354 LINE",
"181 387 OFFCURVE",
"106 350 OFFCURVE",
"106 182 CURVE SMOOTH",
"106 59 OFFCURVE",
"138 0 OFFCURVE",
"213 0 CURVE SMOOTH",
"261 0 OFFCURVE",
"312 50 OFFCURVE",
"337 150 CURVE"
);
},
{
closed = 0;
nodes = (
"337 357 LINE",
"337 100 LINE SMOOTH",
"337 30 OFFCURVE",
"360 0 OFFCURVE",
"390 0 CURVE"
);
}
);
width = 496;
}
);
},
{
color = 0;
glyphname = a.l;
lastChange = "2023-09-25 09:00:23 +0000";
layers = (
{
background = {
components = (
{
name = a;
}
);
};
components = (
{
name = _part.right.stem;
transform = "{1, 0, 0, 1, 231, 0}";
},
{
name = _part.bucle;
}
);
layerId = "6F9C6BB4-2DCF-443B-A55D-9CE049090094";
paths = (
{
closed = 0;
nodes = (
"391 120 LINE SMOOTH",
"363 45 OFFCURVE",
"323 0 OFFCURVE",
"284 0 CURVE"
);
}
);
width = 391;
}
);
},
{
glyphname = idotless.top;
lastChange = "2020-10-10 14:16:32 +0000";
layers = (
{
background = {
paths = (
{
closed = 0;
nodes = (
"65 311 LINE SMOOTH",
"9 360 LINE",
"-4 319 OFFCURVE",
"-17 279 OFFCURVE",
"-39 230 CURVE"
);
}
);
};
components = (
{
alignment = -1;
name = trazo.salida.bajo;
transform = "{1, 0, 0, 1, -81, 0}";
}
);
guideLines = (
{
position = "{130, 161}";
}
);
layerId = "6F9C6BB4-2DCF-443B-A55D-9CE049090094";
paths = (
{
closed = 0;
nodes = (
"9 360 LINE"
);
}
);
width = 218;
}
);
},
{
glyphname = u.top;
lastChange = "2020-10-10 14:45:52 +0000";
layers = (
{
background = {
paths = (
{
closed = 0;
nodes = (
"3 270 LINE SMOOTH",
"6 360 LINE",
"-7 319 OFFCURVE",
"-20 279 OFFCURVE",
"-42 230 CURVE"
);
},
{
closed = 0;
nodes = (
"220 230 LINE",
"158 83 OFFCURVE",
"64 0 OFFCURVE",
"29 0 CURVE SMOOTH",
"-4 0 OFFCURVE",
"-5 38 OFFCURVE",
"-2 119 CURVE SMOOTH",
"3 270 LINE"
);
}
);
};
components = (
{
name = trazo.salida.bajo;
transform = "{1, 0, 0, 1, 117, 0}";
}
);
layerId = "6F9C6BB4-2DCF-443B-A55D-9CE049090094";
paths = (
{
closed = 0;
nodes = (
"207 360 LINE",
"204 270 LINE SMOOTH",
"198 102 OFFCURVE",
"126 1 OFFCURVE",
"67 1 CURVE SMOOTH",
"29 1 OFFCURVE",
"-4 56 OFFCURVE",
"0 182 CURVE SMOOTH",
"6 360 LINE"
);
}
);
width = 416;
}
);
},
{
glyphname = x.001;
lastChange = "2020-10-09 13:22:20 +0000";
layers = (
{
background = {
paths = (
{
closed = 0;
nodes = (
"41 0 LINE SMOOTH",
"53 360 LINE",
"40 319 OFFCURVE",
"27 279 OFFCURVE",
"5 230 CURVE"
);
}
);
};
layerId = "6F9C6BB4-2DCF-443B-A55D-9CE049090094";
paths = (
{
closed = 0;
nodes = (
"287 0 LINE",
"179 120 OFFCURVE",
"101 240 OFFCURVE",
"53 360 CURVE",
"40 319 OFFCURVE",
"27 279 OFFCURVE",
"5 230 CURVE"
);
},
{
closed = 0;
nodes = (
"-1 0 LINE",
"120 90 OFFCURVE",
"205 214 OFFCURVE",
"266 360 CURVE",
"291 316 OFFCURVE",
"351 203 OFFCURVE",
"429 230 CURVE"
);
}
);
width = 424;
}
);
},
{
glyphname = x.002;
lastChange = "2023-09-26 11:39:37 +0000";
layers = (
{
background = {
paths = (
{
closed = 0;
nodes = (
"851 150 LINE",
"831 79 OFFCURVE",
"751 0 OFFCURVE",
"654 0 CURVE SMOOTH",
"591 0 OFFCURVE",
"538 45 OFFCURVE",
"538 182 CURVE SMOOTH",
"538 314 OFFCURVE",
"584 365 OFFCURVE",
"679 365 CURVE SMOOTH",
"731 365 OFFCURVE",
"774 342 OFFCURVE",
"774 290 CURVE SMOOTH",
"774 160 OFFCURVE",
"323 209 OFFCURVE",
"323 79 CURVE SMOOTH",
"323 22 OFFCURVE",
"373 2 OFFCURVE",
"394 2 CURVE SMOOTH",
"593 2 OFFCURVE",
"570 360 OFFCURVE",
"420 360 CURVE SMOOTH",
"313 360 OFFCURVE",
"302 290 OFFCURVE",
"254 150 CURVE"
);
}
);
};
layerId = "6F9C6BB4-2DCF-443B-A55D-9CE049090094";
paths = (
{
closed = 0;
nodes = (
"597 150 LINE",
"577 79 OFFCURVE",
"497 0 OFFCURVE",
"400 0 CURVE SMOOTH",
"337 0 OFFCURVE",
"284 45 OFFCURVE",
"284 182 CURVE SMOOTH",
"284 298 OFFCURVE",
"330 360 OFFCURVE",
"412 360 CURVE SMOOTH",
"464 360 OFFCURVE",
"500 333 OFFCURVE",
"520 290 CURVE SMOOTH"
);
},
{
closed = 0;
nodes = (
"44 58 LINE",
"79 18 OFFCURVE",
"102 0 OFFCURVE",
"148 0 CURVE SMOOTH",
"211 0 OFFCURVE",
"284 49 OFFCURVE",
"284 181 CURVE SMOOTH",
"284 271 OFFCURVE",
"241 360 OFFCURVE",
"166 360 CURVE SMOOTH",
"45 360 OFFCURVE",
"33 243 OFFCURVE",
"0 150 CURVE"
);
}
);
width = 597;
}
);
},
{
glyphname = z.001;
lastChange = "2023-09-25 11:42:12 +0000";
layers = (
{
background = {
paths = (
{
closed = 0;
nodes = (
"380 149 LINE",
"367 86 OFFCURVE",
"118 -27 OFFCURVE",
"118 -246 CURVE SMOOTH",
"118 -307 OFFCURVE",
"140 -349 OFFCURVE",
"179 -349 CURVE SMOOTH",
"218 -349 OFFCURVE",
"241 -288 OFFCURVE",
"241 -215 CURVE SMOOTH",
"241 -86 OFFCURVE",
"175 72 OFFCURVE",
"54 39 CURVE",
"310 -47 OFFCURVE",
"299 360 OFFCURVE",
"145 360 CURVE SMOOTH",
"45 360 OFFCURVE",
"26 281 OFFCURVE",
"0 150 CURVE"
);
}
);
};
layerId = "6F9C6BB4-2DCF-443B-A55D-9CE049090094";
paths = (
{
closed = 0;
nodes = (
"360 149 LINE",
"336 60 OFFCURVE",
"279 16 OFFCURVE",
"225 -27 CURVE SMOOTH",
"28 -182 OFFCURVE",
"119 -349 OFFCURVE",
"179 -349 CURVE SMOOTH",
"282 -349 OFFCURVE",
"385 100 OFFCURVE",
"54 39 CURVE",
"243 360 LINE",
"173 356 OFFCURVE",
"90 341 OFFCURVE",
"25 409 CURVE",
"25 409 OFFCURVE",
"18 236 OFFCURVE",
"0 150 CURVE"
);
}
);
width = 360;
}
);
},
{
glyphname = r.higth.conected;
lastChange = "2020-10-10 12:08:20 +0000";
layers = (
{
components = (
{
name = trazo.entrada.vertice;
}
);
layerId = "6F9C6BB4-2DCF-443B-A55D-9CE049090094";
paths = (
{
closed = 0;
nodes = (
"44 90 LINE",
"57 184 OFFCURVE",
"74 277 OFFCURVE",
"126 360 CURVE",
"154 316 OFFCURVE",
"221 203 OFFCURVE",
"309 230 CURVE"
);
},
{
closed = 0;
nodes = (
"53 360 LINE",
"41 0 LINE"
);
}
);
width = 304;
}
);
},
{
glyphname = one;
lastChange = "2020-10-10 15:09:16 +0000";
layers = (
{
layerId = "6F9C6BB4-2DCF-443B-A55D-9CE049090094";
paths = (
{
closed = 0;
nodes = (
"93 2 LINE",
"509 2 LINE"
);
}
);
width = 600;
}
);
unicode = 0031;
},
{
glyphname = two;
lastChange = "2020-10-10 15:25:11 +0000";
layers = (
{
layerId = "6F9C6BB4-2DCF-443B-A55D-9CE049090094";
paths = (
{
closed = 0;
nodes = (
"93 232 LINE",
"509 232 LINE"
);
},
{
closed = 0;
nodes = (
"93 92 LINE",
"509 92 LINE"
);
}
);
width = 600;
}
);
unicode = 0032;
},
{
glyphname = three;
lastChange = "2020-10-10 15:16:28 +0000";
layers = (
{
layerId = "6F9C6BB4-2DCF-443B-A55D-9CE049090094";
paths = (
{
closed = 0;
nodes = (
"421 70 LINE",
"421 213 OFFCURVE",
"381 290 OFFCURVE",
"301 290 CURVE SMOOTH",
"221 290 OFFCURVE",
"181 213 OFFCURVE",
"181 70 CURVE"
);
}
);
width = 600;
}
);
unicode = 0033;
},
{
glyphname = four;
lastChange = "2020-10-10 15:10:46 +0000";
layers = (
{
layerId = "6F9C6BB4-2DCF-443B-A55D-9CE049090094";
paths = (
{
closed = 0;
nodes = (
"153 379 LINE",
"447 85 LINE"
);
},
{
closed = 0;
nodes = (
"447 379 LINE",
"153 85 LINE"
);
}
);
width = 600;
}
);
unicode = 0034;
},
{
glyphname = five;
lastChange = "2020-10-10 15:14:12 +0000";
layers = (
{
layerId = "6F9C6BB4-2DCF-443B-A55D-9CE049090094";
paths = (
{
closed = 0;
nodes = (
"421 70 LINE",
"301 290 LINE",
"180 70 LINE"
);
}
);
width = 600;
}
);
unicode = 0035;
},
{
glyphname = period;
lastChange = "2020-10-10 12:51:51 +0000";
layers = (
{
layerId = "6F9C6BB4-2DCF-443B-A55D-9CE049090094";
paths = (
{
closed = 0;
nodes = (
"172 89 LINE",
"101 0 LINE SMOOTH"
);
},
{
closed = 0;
nodes = (
"101 89 LINE",
"172 0 LINE SMOOTH"
);
}
);
width = 273;
}
);
unicode = 002E;
},
{
glyphname = comma;
lastChange = "2020-10-10 12:50:01 +0000";
layers = (
{
layerId = "6F9C6BB4-2DCF-443B-A55D-9CE049090094";
paths = (
{
closed = 0;
nodes = (
"96 -131 LINE",
"155 -70 OFFCURVE",
"192 -11 OFFCURVE",
"187 46 CURVE SMOOTH",
"185 69 OFFCURVE",
"167 90 OFFCURVE",
"143 90 CURVE SMOOTH",
"118 90 OFFCURVE",
"98 70 OFFCURVE",
"98 46 CURVE SMOOTH",
"98 21 OFFCURVE",
"118 1 OFFCURVE",
"143 1 CURVE"
);
}
);
width = 284;
}
);
unicode = 002C;
},
{
glyphname = colon;
lastChange = "2020-10-10 12:51:44 +0000";
layers = (
{
layerId = "6F9C6BB4-2DCF-443B-A55D-9CE049090094";
paths = (
{
closed = 0;
nodes = (
"178 89 LINE",
"107 0 LINE SMOOTH"
);
},
{
closed = 0;
nodes = (
"107 89 LINE",
"178 0 LINE SMOOTH"
);
},
{
closed = 0;
nodes = (
"178 359 LINE",
"107 270 LINE SMOOTH"
);
},
{
closed = 0;
nodes = (
"107 359 LINE",
"178 270 LINE SMOOTH"
);
}
);
width = 285;
}
);
unicode = 003A;
},
{
glyphname = semicolon;
lastChange = "2020-10-10 12:51:36 +0000";
layers = (
{
components = (
{
name = comma;
}
);
layerId = "6F9C6BB4-2DCF-443B-A55D-9CE049090094";
paths = (
{
closed = 0;
nodes = (
"171 359 LINE",
"100 270 LINE SMOOTH"
);
},
{
closed = 0;
nodes = (
"100 359 LINE",
"171 270 LINE SMOOTH"
);
}
);
width = 284;
}
);
unicode = 003B;
},
{
glyphname = hyphen;
lastChange = "2020-10-10 15:04:49 +0000";
layers = (
{
layerId = "6F9C6BB4-2DCF-443B-A55D-9CE049090094";
paths = (
{
closed = 0;
nodes = (
"117 270 LINE",
"474 270 LINE"
);
}
);
width = 600;
}
);
unicode = 002D;
},
{
glyphname = underscore;
lastChange = "2020-10-10 15:04:41 +0000";
layers = (
{
layerId = "6F9C6BB4-2DCF-443B-A55D-9CE049090094";
paths = (
{
closed = 0;
nodes = (
"117 153 LINE",
"474 153 LINE"
);
}
);
width = 600;
}
);
unicode = 005F;
},
{
glyphname = quotesingle;
lastChange = "2023-09-26 10:57:45 +0000";
layers = (
{
layerId = "6F9C6BB4-2DCF-443B-A55D-9CE049090094";
paths = (
{
closed = 0;
nodes = (
"124 399 LINE",
"153 480 OFFCURVE",
"165 541 OFFCURVE",
"165 576 CURVE SMOOTH",
"165 600 OFFCURVE",
"152 630 OFFCURVE",
"109 630 CURVE"
);
}
);
width = 281;
}
);
unicode = 0027;
},
{
glyphname = dotaccentcomb;
lastChange = "2020-10-09 09:59:45 +0000";
layers = (
{
layerId = "6F9C6BB4-2DCF-443B-A55D-9CE049090094";
paths = (
{
closed = 0;
nodes = (
"71 630 LINE",
"50 541 LINE SMOOTH"
);
}
);
width = 121;
}
);
unicode = 0307;
},
{
glyphname = _part.bucle;
lastChange = "2023-09-22 13:13:38 +0000";
layers = (
{
background = {
paths = (
{
closed = 0;
nodes = (
"221 354 LINE",
"54 376 OFFCURVE",
"0 350 OFFCURVE",
"0 182 CURVE SMOOTH",
"0 59 OFFCURVE",
"46 0 OFFCURVE",
"97 0 CURVE SMOOTH",
"145 0 OFFCURVE",
"196 50 OFFCURVE",
"221 150 CURVE"
);
}
);
};
layerId = "6F9C6BB4-2DCF-443B-A55D-9CE049090094";
paths = (
{
closed = 0;
nodes = (
"231 354 LINE",
"75 387 OFFCURVE",
"0 350 OFFCURVE",
"0 182 CURVE SMOOTH",
"0 59 OFFCURVE",
"32 0 OFFCURVE",
"107 0 CURVE SMOOTH",
"155 0 OFFCURVE",
"206 50 OFFCURVE",
"231 150 CURVE"
);
}
);
width = 231;
}
);
},
{
export = 0;
glyphname = _part.n.ground;
lastChange = "2023-09-25 07:23:07 +0000";
layers = (
{
background = {
paths = (
{
closed = 0;
nodes = (
"11 191 LINE",
"7 305 OFFCURVE",
"55 360 OFFCURVE",
"109 360 CURVE SMOOTH",
"168 360 OFFCURVE",
"201 316 OFFCURVE",
"201 227 CURVE SMOOTH",
"201 100 LINE SMOOTH",
"201 30 OFFCURVE",
"224 0 OFFCURVE",
"254 0 CURVE"
);
}
);
};
guideLines = (
{
angle = 80.8858;
position = "{15, 214}";
}
);
layerId = "6F9C6BB4-2DCF-443B-A55D-9CE049090094";
paths = (
{
closed = 0;
nodes = (
"201 191 LINE",
"206 305 OFFCURVE",
"249 360 OFFCURVE",
"303 360 CURVE SMOOTH",
"362 360 OFFCURVE",
"395 316 OFFCURVE",
"395 227 CURVE SMOOTH",
"395 100 LINE SMOOTH",
"395 30 OFFCURVE",
"418 0 OFFCURVE",
"448 0 CURVE"
);
},
{
closed = 0;
nodes = (
"201 0 LINE",
"201 227 LINE SMOOTH",
"201 316 OFFCURVE",
"183 360 OFFCURVE",
"127 360 CURVE SMOOTH",
"45 360 OFFCURVE",
"26 281 OFFCURVE",
"0 150 CURVE"
);
}
);
width = 448;
}
);
},
{
export = 0;
glyphname = _part.n.init;
lastChange = "2023-09-22 12:22:33 +0000";
layers = (
{
anchors = (
{
name = origin;
position = "{147, 360}";
}
);
guideLines = (
{
angle = 65.4752;
position = "{32, 113}";
}
);
layerId = "6F9C6BB4-2DCF-443B-A55D-9CE049090094";
paths = (
{
closed = 0;
nodes = (
"25 100 LINE",
"68 193 OFFCURVE",
"82 360 OFFCURVE",
"147 360 CURVE SMOOTH"
);
}
);
width = 147;
}
);
},
{
export = 0;
glyphname = _part.right.stem;
lastChange = "2023-09-22 13:00:05 +0000";
layers = (
{
layerId = "6F9C6BB4-2DCF-443B-A55D-9CE049090094";
paths = (
{
closed = 0;
nodes = (
"0 357 LINE",
"0 100 LINE SMOOTH",
"0 30 OFFCURVE",
"23 0 OFFCURVE",
"53 0 CURVE"
);
}
);
width = 53;
}
);
},
{
export = 0;
glyphname = _part.right.stem.long;
lastChange = "2023-09-22 13:15:14 +0000";
layers = (
{
layerId = "6F9C6BB4-2DCF-443B-A55D-9CE049090094";
paths = (
{
closed = 0;
nodes = (
"0 630 LINE",
"0 100 LINE SMOOTH",
"0 30 OFFCURVE",
"23 0 OFFCURVE",
"53 0 CURVE"
);
}
);
width = 53;
}
);
},
{
export = 0;
glyphname = _part.n.tr.entra.largo;
lastChange = "2023-09-22 13:49:24 +0000";
layers = (
{
layerId = "6F9C6BB4-2DCF-443B-A55D-9CE049090094";
paths = (
{
closed = 0;
nodes = (
"0 0 LINE",
"48 174 OFFCURVE",
"77 360 OFFCURVE",
"142 360 CURVE SMOOTH"
);
}
);
width = 142;
}
);
},
{
export = 0;
glyphname = _part.n.tr.entra.sale;
lastChange = "2023-09-25 10:16:35 +0000";
layers = (
{
background = {
paths = (
{
closed = 0;
nodes = (
"0 0 LINE",
"33 0 OFFCURVE",
"76 33 OFFCURVE",
"106 100 CURVE SMOOTH"
);
}
);
};
guideLines = (
{
angle = 260.5377;
position = "{101, 120}";
}
);
layerId = "6F9C6BB4-2DCF-443B-A55D-9CE049090094";
paths = (
{
closed = 0;
nodes = (
"106 150 LINE SMOOTH",
"77 50 OFFCURVE",
"34 0 OFFCURVE",
"0 0 CURVE"
);
}
);
width = 106;
}
);
},
{
export = 0;
glyphname = _part.n.tr.entra.sale.medio.alto;
lastChange = "2023-09-25 10:24:01 +0000";
layers = (
{
background = {
paths = (
{
closed = 0;
nodes = (
"0 0 LINE",
"33 0 OFFCURVE",
"76 33 OFFCURVE",
"106 100 CURVE SMOOTH"
);
}
);
};
guideLines = (
{
angle = 260.5377;
position = "{101, 120}";
}
);
layerId = "6F9C6BB4-2DCF-443B-A55D-9CE049090094";
paths = (
{
closed = 0;
nodes = (
"106 237 LINE SMOOTH",
"87 101 OFFCURVE",
"34 0 OFFCURVE",
"0 0 CURVE"
);
}
);
width = 106;
}
);
},
{
glyphname = arco;
lastChange = "2020-10-09 10:17:16 +0000";
layers = (
{
background = {
paths = (
{
closed = 0;
nodes = (
"0 0 LINE",
"6 154 LINE",
"40 253 OFFCURVE",
"96 360 OFFCURVE",
"181 360 CURVE SMOOTH",
"221 360 OFFCURVE",
"233 244 OFFCURVE",
"221 75 CURVE SMOOTH"
);
}
);
};
layerId = "6F9C6BB4-2DCF-443B-A55D-9CE049090094";
paths = (
{
closed = 0;
nodes = (
"214 0 LINE",
"222 219 LINE SMOOTH",
"226 337 OFFCURVE",
"219 360 OFFCURVE",
"179 360 CURVE SMOOTH",
"124 360 OFFCURVE",
"6 179 OFFCURVE",
"3 91 CURVE SMOOTH",
"0 0 LINE"
);
}
);
width = 223;
}
);
},
{
glyphname = "baston-descendente";
lastChange = "2023-09-19 10:58:50 +0000";
layers = (
{
background = {
paths = (
{
closed = 0;
nodes = (
"-8 270 LINE",
"-29 -325 LINE SMOOTH"
);
},
{
closed = 0;
nodes = (
"192 230 LINE",
"130 83 OFFCURVE",
"36 0 OFFCURVE",
"1 0 CURVE SMOOTH",
"-6 0 OFFCURVE",
"-14 4 OFFCURVE",
"-18 8 CURVE"
);
}
);
};
layerId = "6F9C6BB4-2DCF-443B-A55D-9CE049090094";
paths = (
{
closed = 0;
nodes = (
"0 360 LINE",
"0 -325 LINE",
"0 -325 OFFCURVE",
"112 -299 OFFCURVE",
"112 -165 CURVE SMOOTH",
"112 -46 OFFCURVE",
"1 0 OFFCURVE",
"1 0 CURVE",
"67 0 OFFCURVE",
"147 66 OFFCURVE",
"174 150 CURVE"
);
}
);
width = 174;
}
);
},
{
glyphname = espacio;
lastChange = "2020-10-08 09:51:03 +0000";
layers = (
{
layerId = "6F9C6BB4-2DCF-443B-A55D-9CE049090094";
paths = (
{
closed = 1;
nodes = (
"361 660 LINE SMOOTH",
"363 687 OFFCURVE",
"360 699 OFFCURVE",
"333 699 CURVE SMOOTH",
"61 700 LINE",
"0 39 LINE SMOOTH",
"-2 12 OFFCURVE",
"1 0 OFFCURVE",
"28 0 CURVE SMOOTH",
"300 -1 LINE"
);
}
);
width = 351;
}
);
},
{
color = 0;
glyphname = "l-o";
lastChange = "2023-09-25 10:34:20 +0000";
layers = (
{
background = {
paths = (
{
closed = 0;
nodes = (
"99 0 LINE",
"31 0 OFFCURVE",
"0 176 OFFCURVE",
"0 353 CURVE SMOOTH",
"0 411 OFFCURVE",
"0 709 OFFCURVE",
"90 709 CURVE SMOOTH",
"130 709 OFFCURVE",
"144 667 OFFCURVE",
"144 606 CURVE SMOOTH",
"144 490 OFFCURVE",
"76 272 OFFCURVE",
"15 153 CURVE SMOOTH"
);
}
);
};
components = (
{
name = _part.n.tr.entra.sale;
transform = "{1, 0, 0, 1, 99, 0}";
}
);
guideLines = (
{
angle = 84.5324;
position = "{-13, 351}";
}
);
layerId = "6F9C6BB4-2DCF-443B-A55D-9CE049090094";
paths = (
{
closed = 0;
nodes = (
"99 0 LINE",
"31 0 OFFCURVE",
"0 176 OFFCURVE",
"0 353 CURVE SMOOTH",
"0 411 OFFCURVE",
"0 709 OFFCURVE",
"90 709 CURVE SMOOTH",
"130 709 OFFCURVE",
"144 667 OFFCURVE",
"144 606 CURVE SMOOTH",
"144 490 OFFCURVE",
"95 341 OFFCURVE",
"4 250 CURVE SMOOTH"
);
}
);
width = 205;
}
);
},
{
glyphname = baston.ascendente;
lastChange = "2020-10-09 09:19:25 +0000";
layers = (
{
background = {
paths = (
{
closed = 0;
nodes = (
"67 630 LINE",
"10 170 LINE SMOOTH",
"-1 83 OFFCURVE",
"-7 0 OFFCURVE",
"12 0 CURVE SMOOTH",
"94 0 OFFCURVE",
"261 277 OFFCURVE",
"301 330 CURVE"
);
}
);
};
layerId = "6F9C6BB4-2DCF-443B-A55D-9CE049090094";
paths = (
{
closed = 1;
nodes = (
"34 170 LINE",
"115 170 LINE",
"115 360 LINE",
"34 360 LINE"
);
}
);
width = 166;
}
);
},
{
glyphname = baston.caps;
lastChange = "2020-10-09 15:29:46 +0000";
layers = (
{
layerId = "6F9C6BB4-2DCF-443B-A55D-9CE049090094";
paths = (
{
closed = 0;
nodes = (
"50 700 LINE",
"144 700 OFFCURVE",
"150 699 OFFCURVE",
"146 588 CURVE SMOOTH",
"125 0 LINE"
);
}
);
width = 197;
}
);
},
{
glyphname = bucle.ascendente;
lastChange = "2023-09-19 10:16:08 +0000";
layers = (
{
background = {
paths = (
{
closed = 0;
nodes = (
"-2 90 LINE",
"17 651 LINE SMOOTH",
"19 700 OFFCURVE",
"32 735 OFFCURVE",
"63 735 CURVE SMOOTH",
"100 735 OFFCURVE",
"115 702 OFFCURVE",
"115 650 CURVE SMOOTH",
"115 541 OFFCURVE",
"49 361 OFFCURVE",
"3 238 CURVE"
);
}
);
};
guideLines = (
{
angle = 70.887;
position = "{17, 201}";
}
);
layerId = "6F9C6BB4-2DCF-443B-A55D-9CE049090094";
paths = (
{
closed = 0;
nodes = (
"11 103 LINE",
"119 290 OFFCURVE",
"201 735 OFFCURVE",
"71 735 CURVE SMOOTH",
"30 735 OFFCURVE",
"2 673 OFFCURVE",
"2 467 CURVE SMOOTH",
"2 86 OFFCURVE",
"32 0 OFFCURVE",
"93 0 CURVE SMOOTH"
);
}
);
width = 115;
}
);
},
{
glyphname = bucle.descendente;
lastChange = "2020-10-10 12:06:04 +0000";
layers = (
{
background = {
paths = (
{
closed = 0;
nodes = (
"124 270 LINE",
"106 -240 LINE SMOOTH",
"104 -299 OFFCURVE",
"90 -324 OFFCURVE",
"60 -324 CURVE SMOOTH",
"27 -324 OFFCURVE",
"0 -294 OFFCURVE",
"0 -244 CURVE SMOOTH",
"0 -166 OFFCURVE",
"64 -99 OFFCURVE",
"164 20 CURVE SMOOTH",
"223 90 OFFCURVE",
"287 167 OFFCURVE",
"315 230 CURVE"
);
}
);
};
layerId = "6F9C6BB4-2DCF-443B-A55D-9CE049090094";
paths = (
{
closed = 0;
nodes = (
"127 360 LINE",
"106 -240 LINE SMOOTH",
"104 -299 OFFCURVE",
"90 -324 OFFCURVE",
"60 -324 CURVE SMOOTH",
"27 -324 OFFCURVE",
"0 -294 OFFCURVE",
"0 -244 CURVE SMOOTH",
"0 -166 OFFCURVE",
"64 -99 OFFCURVE",
"164 20 CURVE SMOOTH",
"223 90 OFFCURVE",
"287 167 OFFCURVE",
"315 230 CURVE"
);
}
);
width = 310;
}
);
},
{
glyphname = arco.con.salida;
lastChange = "2020-10-10 12:07:45 +0000";
layers = (
{
background = {
paths = (
{
closed = 0;
nodes = (
"0 0 LINE",
"6 154 LINE",
"40 253 OFFCURVE",
"96 360 OFFCURVE",
"181 360 CURVE SMOOTH",
"221 360 OFFCURVE",
"233 244 OFFCURVE",
"221 75 CURVE SMOOTH"
);
}
);
};
layerId = "6F9C6BB4-2DCF-443B-A55D-9CE049090094";
paths = (
{
closed = 0;
nodes = (
"420 230 LINE",
"364 83 OFFCURVE",
"280 0 OFFCURVE",
"249 0 CURVE SMOOTH",
"216 0 OFFCURVE",
"215 38 OFFCURVE",
"218 119 CURVE SMOOTH",
"222 219 LINE SMOOTH",
"227 337 OFFCURVE",
"219 360 OFFCURVE",
"179 360 CURVE SMOOTH",
"124 360 OFFCURVE",
"6 179 OFFCURVE",
"3 91 CURVE SMOOTH",
"0 0 LINE"
);
}
);
width = 415;
}
);
},
{
glyphname = trazo.entrada.curvo;
lastChange = "2020-10-09 12:32:40 +0000";
layers = (
{
background = {
paths = (
{
closed = 0;
nodes = (
"160 0 LINE",
"179 153 LINE SMOOTH",
"197 300 OFFCURVE",
"196 360 OFFCURVE",
"175 360 CURVE SMOOTH",
"147 360 OFFCURVE",
"81 265 OFFCURVE",
"11 170 CURVE SMOOTH"
);
}
);
};
layerId = "6F9C6BB4-2DCF-443B-A55D-9CE049090094";
paths = (
{
closed = 0;
nodes = (
"5 230 LINE",
"33 291 OFFCURVE",
"66 359 OFFCURVE",
"101 359 CURVE SMOOTH",
"124 359 OFFCURVE",
"125 321 OFFCURVE",
"122 240 CURVE SMOOTH",
"116 90 LINE"
);
}
);
width = 299;
}
);
},
{
glyphname = trazo.entrada.vertice;
lastChange = "2020-10-10 12:05:29 +0000";
layers = (
{
background = {
paths = (
{
closed = 0;
nodes = (
"41 0 LINE",
"53 360 LINE"
);
}
);
};
layerId = "6F9C6BB4-2DCF-443B-A55D-9CE049090094";
paths = (
{
closed = 0;
nodes = (
"53 360 LINE"
);
},
{
closed = 0;
nodes = (
"53 359 LINE",
"41 318 OFFCURVE",
"27 279 OFFCURVE",
"5 230 CURVE"
);
}
);
width = 53;
}
);
},
{
glyphname = trazo.salida.bajo;
lastChange = "2023-09-19 10:13:15 +0000";
layers = (
{
background = {
paths = (
{
closed = 0;
nodes = (
"304 230 LINE",
"242 83 OFFCURVE",
"148 0 OFFCURVE",
"113 0 CURVE SMOOTH",
"80 0 OFFCURVE",
"79 38 OFFCURVE",
"82 119 CURVE SMOOTH",
"87 270 LINE"
);
}
);
};
guideLines = (
{
angle = 70.887;
position = "{316, 201}";
}
);
layerId = "6F9C6BB4-2DCF-443B-A55D-9CE049090094";
paths = (
{
closed = 0;
nodes = (
"306 100 LINE",
"266 39 OFFCURVE",
"221 0 OFFCURVE",
"173 0 CURVE SMOOTH",
"129 0 OFFCURVE",
"91 31 OFFCURVE",
"91 119 CURVE SMOOTH",
"91 360 LINE"
);
}
);
width = 299;
}
);
},
{
glyphname = trazo.salida.v;
lastChange = "2023-09-19 09:56:34 +0000";
layers = (
{
background = {
paths = (
{
closed = 0;
nodes = (
"-1 90 LINE",
"-5 10 OFFCURVE",
"5 0 OFFCURVE",
"41 0 CURVE SMOOTH",
"111 0 OFFCURVE",
"216 143 OFFCURVE",
"216 260 CURVE SMOOTH",
"216 292 OFFCURVE",
"206 311 OFFCURVE",
"190 330 CURVE SMOOTH",
"155 370 OFFCURVE",
"109 360 OFFCURVE",
"109 329 CURVE SMOOTH",
"109 249 OFFCURVE",
"260 217 OFFCURVE",
"362 230 CURVE"
);
},
{
closed = 0;
nodes = (
"221 354 LINE",
"191 358 OFFCURVE",
"111 361 OFFCURVE",
"81 361 CURVE SMOOTH",
"39 361 OFFCURVE",
"0 252 OFFCURVE",
"0 182 CURVE SMOOTH",
"0 56 OFFCURVE",
"38 1 OFFCURVE",
"81 1 CURVE SMOOTH",
"140 1 OFFCURVE",
"209 102 OFFCURVE",
"217 270 CURVE SMOOTH",
"221 350 LINE"
);
}
